<svg width="1024" height="1024" viewBox="0 0 1024 1024" fill="none" xmlns="http://www.w3.org/2000/svg">
<path d="M511.63 378.43C438.23 378.43 378.33 438.33 378.33 511.73C378.33 585.13 438.23 645.03 511.63 645.03C585.03 645.03 644.93 585.13 644.93 511.73C644.93 438.33 585.03 378.43 511.63 378.43ZM911.43 511.73C911.43 456.53 911.93 401.83 908.83 346.73C905.73 282.73 891.13 225.93 844.33 179.13C797.43 132.23 740.73 117.73 676.73 114.63C621.53 111.53 566.83 112.03 511.73 112.03C456.53 112.03 401.83 111.53 346.73 114.63C282.73 117.73 225.93 132.33 179.13 179.13C132.23 226.03 117.73 282.73 114.63 346.73C111.53 401.93 112.03 456.63 112.03 511.73C112.03 566.83 111.53 621.63 114.63 676.73C117.73 740.73 132.33 797.53 179.13 844.33C226.03 891.23 282.73 905.73 346.73 908.83C401.93 911.93 456.63 911.43 511.73 911.43C566.93 911.43 621.63 911.93 676.73 908.83C740.73 905.73 797.53 891.13 844.33 844.33C891.23 797.43 905.73 740.73 908.83 676.73C912.03 621.63 911.43 566.93 911.43 511.73V511.73ZM511.63 716.83C398.13 716.83 306.53 625.23 306.53 511.73C306.53 398.23 398.13 306.63 511.63 306.63C625.13 306.63 716.73 398.23 716.73 511.73C716.73 625.23 625.13 716.83 511.63 716.83ZM725.13 346.13C698.63 346.13 677.23 324.73 677.23 298.23C677.23 271.73 698.63 250.33 725.13 250.33C751.63 250.33 773.03 271.73 773.03 298.23C773.038 304.522 771.804 310.755 769.4 316.57C766.995 322.385 763.467 327.668 759.018 332.118C754.568 336.567 749.285 340.095 743.47 342.5C737.655 344.904 731.422 346.138 725.13 346.13V346.13Z" fill="white"/>
</svg>
