<svg width="1018" height="97" viewBox="0 0 1018 97" fill="none" xmlns="http://www.w3.org/2000/svg">
<path d="M27.5116 3.67995C38.4716 3.67995 46.8716 6.39995 52.7116 11.84C58.5516 17.2 61.4716 24.4 61.4716 33.44C61.4716 37.04 60.9116 40.68 59.7916 44.36C58.7516 47.96 57.0316 51.24 54.6316 54.2C52.3116 57.16 49.1516 59.56 45.1516 61.4C41.2316 63.16 36.3916 64.04 30.6316 64.04H18.1516V92H0.751556V3.67995H27.5116ZM30.5116 47.12C34.0316 47.12 36.7516 46.36 38.6716 44.84C40.6716 43.24 42.0716 41.4 42.8716 39.32C43.6716 37.24 44.0716 35.44 44.0716 33.92C44.0716 33.04 43.9116 31.88 43.5916 30.44C43.3516 28.92 42.7916 27.4 41.9116 25.88C41.0316 24.36 39.6716 23.08 37.8316 22.04C36.0716 21 33.6716 20.48 30.6316 20.48H18.1516V47.12H30.5116Z" fill="#4056A1"/>
<path d="M77.0406 3.67995H94.4406V92H77.0406V3.67995Z" fill="#4056A1"/>
<path d="M196.316 95.6L134.516 39.8L134.876 92H117.236V0.199951H117.956L179.636 56.84L179.276 3.67995H196.796V95.6H196.316Z" fill="#4056A1"/>
<path d="M214.141 47.96C214.141 41.88 215.301 36.12 217.621 30.68C219.941 25.24 223.141 20.4399 227.221 16.28C231.381 12.04 236.181 8.71995 241.621 6.31995C247.061 3.91995 252.901 2.71995 259.141 2.71995C265.301 2.71995 271.101 3.91995 276.541 6.31995C281.981 8.71995 286.781 12.04 290.941 16.28C295.181 20.4399 298.461 25.24 300.781 30.68C303.181 36.12 304.381 41.88 304.381 47.96C304.381 54.2 303.181 60.04 300.781 65.48C298.461 70.92 295.181 75.72 290.941 79.88C286.781 83.96 281.981 87.16 276.541 89.48C271.101 91.8 265.301 92.96 259.141 92.96C252.901 92.96 247.061 91.8 241.621 89.48C236.181 87.16 231.381 83.96 227.221 79.88C223.141 75.72 219.941 70.92 217.621 65.48C215.301 60.04 214.141 54.2 214.141 47.96ZM232.141 47.96C232.141 53.16 233.341 57.92 235.741 62.24C238.221 66.48 241.541 69.88 245.701 72.44C249.861 74.92 254.541 76.16 259.741 76.16C264.781 76.16 269.301 74.92 273.301 72.44C277.381 69.88 280.581 66.48 282.901 62.24C285.221 57.92 286.381 53.16 286.381 47.96C286.381 42.6 285.181 37.8 282.781 33.56C280.381 29.24 277.141 25.84 273.061 23.36C268.981 20.8 264.381 19.52 259.261 19.52C254.141 19.52 249.541 20.8 245.461 23.36C241.381 25.84 238.141 29.24 235.741 33.56C233.341 37.8 232.141 42.6 232.141 47.96Z" fill="#4056A1"/>
<path d="M335.625 64.52L303.105 3.67995H324.585L344.865 44.48L364.665 3.67995H386.145L353.025 64.52V92H335.625V64.52Z" fill="#4056A1"/>
<path d="M442.247 25.04C438.887 23.2 435.447 21.68 431.927 20.48C428.487 19.28 425.247 18.68 422.207 18.68C418.447 18.68 415.487 19.44 413.327 20.96C411.167 22.48 410.087 24.76 410.087 27.8C410.087 29.88 410.887 31.76 412.487 33.44C414.167 35.04 416.288 36.48 418.848 37.76C421.488 39.04 424.208 40.2 427.008 41.24C430.448 42.52 433.767 44.16 436.967 46.16C440.167 48.08 442.808 50.76 444.888 54.2C446.968 57.56 448.008 62.04 448.008 67.64C448.008 72.12 446.847 76.28 444.527 80.12C442.207 83.96 438.807 87.08 434.327 89.48C429.847 91.8 424.327 92.96 417.767 92.96C412.727 92.96 407.568 92.2 402.288 90.68C397.088 89.16 392.167 86.76 387.527 83.48L395.207 69.92C398.247 72.16 401.727 74 405.647 75.44C409.567 76.88 413.087 77.6 416.207 77.6C418.287 77.6 420.368 77.32 422.448 76.76C424.608 76.12 426.368 75.08 427.728 73.64C429.168 72.2 429.887 70.2 429.887 67.64C429.887 65 428.607 62.72 426.047 60.8C423.567 58.8 420.567 57.12 417.047 55.76C414.327 54.72 411.527 53.52 408.647 52.16C405.767 50.8 403.047 49.16 400.487 47.24C398.007 45.24 395.967 42.8 394.367 39.92C392.847 36.96 392.087 33.36 392.087 29.12C392.087 24 393.207 19.56 395.447 15.8C397.767 12.04 401.007 9.07995 405.167 6.91995C409.327 4.67995 414.128 3.43995 419.568 3.19996C426.688 3.19996 432.448 4.03995 436.848 5.71995C441.328 7.39995 445.328 9.39995 448.848 11.72L442.247 25.04Z" fill="#4056A1"/>
<path d="M558.055 4.27997H578.455L595.855 55.4L609.295 21.68L602.335 4.27997H619.615L639.415 53.36L654.415 4.27997H673.135L639.055 95.84L618.055 43.52L593.575 96.08L558.055 4.27997Z" fill="#FF4133"/>
<path d="M675.879 47.96C675.879 41.88 677.039 36.12 679.359 30.68C681.679 25.24 684.879 20.44 688.959 16.28C693.119 12.04 697.919 8.71997 703.359 6.31997C708.799 3.91997 714.639 2.71997 720.879 2.71997C727.039 2.71997 732.839 3.91997 738.279 6.31997C743.719 8.71997 748.519 12.04 752.679 16.28C756.919 20.44 760.199 25.24 762.519 30.68C764.919 36.12 766.119 41.88 766.119 47.96C766.119 54.2 764.919 60.04 762.519 65.48C760.199 70.92 756.919 75.72 752.679 79.88C748.519 83.96 743.719 87.16 738.279 89.48C732.839 91.8 727.039 92.96 720.879 92.96C714.639 92.96 708.799 91.8 703.359 89.48C697.919 87.16 693.119 83.96 688.959 79.88C684.879 75.72 681.679 70.92 679.359 65.48C677.039 60.04 675.879 54.2 675.879 47.96ZM693.879 47.96C693.879 53.16 695.079 57.92 697.479 62.24C699.959 66.48 703.279 69.88 707.439 72.44C711.599 74.92 716.279 76.16 721.479 76.16C726.519 76.16 731.039 74.92 735.039 72.44C739.119 69.88 742.319 66.48 744.639 62.24C746.959 57.92 748.119 53.16 748.119 47.96C748.119 42.6 746.919 37.8 744.519 33.56C742.119 29.24 738.879 25.84 734.799 23.36C730.719 20.8 726.119 19.52 720.999 19.52C715.879 19.52 711.279 20.8 707.199 23.36C703.119 25.84 699.879 29.24 697.479 33.56C695.079 37.8 693.879 42.6 693.879 47.96Z" fill="#FF4133"/>
<path d="M810.226 3.67997C821.346 3.67997 829.866 6.39997 835.786 11.84C841.786 17.2 844.786 24.4 844.786 33.44C844.786 38.48 843.706 43.44 841.546 48.32C839.466 53.2 835.906 57.08 830.866 59.96L851.386 92H831.106L812.506 63.92H800.866V92H783.466V3.67997H810.226ZM813.226 47.12C816.746 47.12 819.466 46.4 821.386 44.96C823.386 43.44 824.786 41.68 825.586 39.68C826.386 37.6 826.786 35.72 826.786 34.04C826.786 33.08 826.626 31.88 826.306 30.44C826.066 28.92 825.506 27.4 824.626 25.88C823.746 24.36 822.386 23.08 820.546 22.04C818.786 21 816.386 20.48 813.346 20.48H800.866V47.12H813.226Z" fill="#FF4133"/>
<path d="M865.732 3.67997H883.132V75.2H924.652V92H865.732V3.67997Z" fill="#FF4133"/>
<path d="M942.607 92V3.67997H969.007C977.887 3.67997 985.447 4.99997 991.687 7.63997C997.927 10.28 1002.93 13.8 1006.69 18.2C1010.53 22.6 1013.33 27.52 1015.09 32.96C1016.85 38.4 1017.73 43.88 1017.73 49.4C1017.73 55.96 1016.53 61.88 1014.13 67.16C1011.81 72.36 1008.61 76.84 1004.53 80.6C1000.45 84.28 995.727 87.12 990.367 89.12C985.007 91.04 979.327 92 973.327 92H942.607ZM960.007 75.2H970.327C979.127 75.2 986.207 72.92 991.567 68.36C997.007 63.8 999.727 57.08 999.727 48.2C999.727 42.44 998.767 37.76 996.847 34.16C995.007 30.48 992.687 27.64 989.887 25.64C987.167 23.64 984.367 22.28 981.487 21.56C978.607 20.76 976.167 20.36 974.167 20.36H960.007V75.2Z" fill="#FF4133"/>
<path d="M475.888 12.672L483.952 32.592L491.536 12.672H499.792L483.664 49.632L467.536 12.672H475.888Z" fill="#D79922"/>
<path d="M524.768 21.216C523.424 20.48 522.048 19.872 520.64 19.392C519.264 18.912 517.968 18.672 516.752 18.672C515.248 18.672 514.064 18.976 513.2 19.584C512.336 20.192 511.904 21.104 511.904 22.32C511.904 23.152 512.224 23.904 512.864 24.576C513.536 25.216 514.384 25.792 515.408 26.304C516.464 26.816 517.552 27.28 518.672 27.696C520.048 28.208 521.376 28.864 522.656 29.664C523.936 30.432 524.992 31.504 525.824 32.88C526.656 34.224 527.072 36.016 527.072 38.256C527.072 40.048 526.608 41.712 525.68 43.248C524.752 44.784 523.392 46.032 521.6 46.992C519.808 47.92 517.6 48.384 514.976 48.384C512.96 48.384 510.896 48.08 508.784 47.472C506.704 46.864 504.736 45.904 502.88 44.592L505.952 39.168C507.168 40.064 508.56 40.8 510.128 41.376C511.696 41.952 513.104 42.24 514.352 42.24C515.184 42.24 516.016 42.128 516.848 41.904C517.712 41.648 518.416 41.232 518.96 40.656C519.536 40.08 519.824 39.28 519.824 38.256C519.824 37.2 519.312 36.288 518.288 35.52C517.296 34.72 516.096 34.048 514.688 33.504C513.6 33.088 512.48 32.608 511.328 32.064C510.176 31.52 509.088 30.864 508.064 30.096C507.072 29.296 506.256 28.32 505.616 27.168C505.008 25.984 504.704 24.544 504.704 22.848C504.704 20.8 505.152 19.024 506.048 17.52C506.976 16.016 508.272 14.832 509.936 13.968C511.6 13.072 513.52 12.576 515.696 12.48C518.544 12.48 520.848 12.816 522.608 13.488C524.4 14.16 526 14.96 527.408 15.888L524.768 21.216Z" fill="#D79922"/>
<path d="M530.048 44.544C530.048 43.552 530.4 42.72 531.104 42.048C531.84 41.376 532.64 41.04 533.504 41.04C534.304 41.04 535.056 41.376 535.76 42.048C536.496 42.72 536.864 43.552 536.864 44.544C536.864 45.6 536.496 46.448 535.76 47.088C535.056 47.696 534.304 48 533.504 48C532.64 48 531.84 47.696 531.104 47.088C530.4 46.448 530.048 45.6 530.048 44.544Z" fill="#D79922"/>
<path d="M468.16 60.672H491.968V67.392H483.376V96H476.416V67.392H468.16V60.672Z" fill="#D79922"/>
<path d="M528.397 60.672V96H521.437V81.648H505.645V96H498.685V60.672H505.645V74.928H521.437V60.672H528.397Z" fill="#D79922"/>
<path d="M537.498 60.672H561.594V67.392H544.458V74.928H559.626V81.648H544.458V89.28H562.266V96H537.498V60.672Z" fill="#D79922"/>
</svg>
