<svg width="49" height="49" viewBox="0 0 49 49" fill="none" xmlns="http://www.w3.org/2000/svg">
<g clip-path="url(#clip0)">
<path d="M30.8551 22.7664L35.3404 21.5312L35.8045 20.3777L30.5746 22.2765L30.8551 22.7664ZM29.6622 20.6824L34.6298 17.0668L36.6315 17.4784L35.9639 19.3975L30.329 21.8474L29.6622 20.6824V20.6824ZM29.1357 19.7625L32.4984 16.5661L33.7343 16.761L29.4166 20.2533L29.1357 19.7625Z" fill="#FCD116"/>
<path d="M18.9702 27.6058C20.736 30.6907 24.7102 31.736 27.8469 29.9406C30.9836 28.1452 32.0949 24.1889 30.3291 21.104C28.5633 18.0191 24.5891 16.9738 21.4524 18.7692C18.3158 20.5646 17.2045 24.5209 18.9702 27.6058Z" fill="#FCD116"/>
<path d="M18.444 25.9433L13.9587 27.1785L13.4946 28.332L18.7244 26.4333L18.444 25.9433ZM19.6369 28.0274L14.6693 31.6429L12.6676 31.2313L13.3352 29.3122L18.9701 26.8624L19.6369 28.0274ZM20.1634 28.9472L16.8006 32.1436L15.5648 31.9487L19.8825 28.4565L20.1634 28.9472V28.9472Z" fill="#FCD116"/>
<path d="M26.1623 30.4862L27.3438 34.9166L28.5005 35.3603L26.6605 30.201L26.1623 30.4862ZM28.2813 29.2733L31.8566 34.1479L31.4128 36.1389L29.4868 35.5043L27.0968 29.9513L28.2813 29.2733ZM29.2166 28.7379L32.3921 32.027L32.1779 33.2554L28.7176 29.0235L29.2166 28.7379Z" fill="#FCD116"/>
<path d="M21.4525 18.7692C18.3158 20.5646 17.2045 24.5209 18.9703 27.6058C20.7361 30.6907 24.7103 31.7361 27.8469 29.9407C30.9836 28.1453 32.0949 24.189 30.3291 21.1041C28.5633 18.0192 24.5891 16.9738 21.4525 18.7692Z" fill="#FCD116"/>
<path d="M23.1369 18.2234L21.9554 13.793L20.7987 13.3493L22.6387 18.5086L23.1369 18.2234V18.2234ZM21.0178 19.4364L17.4426 14.5617L17.8864 12.5707L19.8124 13.2053L22.2024 18.7583L21.0178 19.4364V19.4364ZM20.0826 19.9717L16.9071 16.6826L17.1213 15.4542L20.5815 19.6861L20.0826 19.9717V19.9717Z" fill="#FCD116"/>
<path d="M27.9679 18.896L30.3041 14.8898L29.8144 13.7604L27.4173 18.7512L27.9679 18.896ZM25.626 18.28L26.6106 12.2765L28.3398 11.1597L29.2296 12.9654L26.9351 18.6243L25.626 18.28ZM24.5924 18.0081L24.7248 13.4222L25.7502 12.6914L25.1438 18.1532L24.5924 18.0081Z" fill="#FCD116"/>
<path d="M22.8944 30.6032C26.3609 31.5151 29.9569 29.4567 30.9263 26.0058C31.8956 22.5549 29.8712 19.0182 26.4047 18.1064C22.9381 17.1946 19.3421 19.2529 18.3728 22.7038C17.4034 26.1547 19.4278 29.6914 22.8944 30.6032Z" fill="#FCD116"/>
<path d="M21.3315 29.8136L18.9953 33.8198L19.4851 34.9492L21.8821 29.9584L21.3315 29.8136V29.8136ZM23.6734 30.4296L22.6888 36.433L20.9596 37.5498L20.0698 35.7441L22.3643 30.0852L23.6734 30.4296ZM24.707 30.7014L24.5746 35.2873L23.5492 36.0182L24.1556 30.5564L24.707 30.7014V30.7014Z" fill="#FCD116"/>
<path d="M30.1073 27.5673L34.1143 29.8267L35.2604 29.3248L30.2613 27.0192L30.1073 27.5673V27.5673ZM30.7622 25.236L36.803 26.1263L37.9045 27.8252L36.0706 28.7335L30.3961 26.5392L30.7622 25.236ZM31.0512 24.2071L35.6745 24.2726L36.3969 25.279L30.897 24.756L31.0512 24.2071V24.2071Z" fill="#FCD116"/>
<path d="M18.3725 22.704C17.4031 26.1549 19.4275 29.6916 22.8941 30.6034C26.3606 31.5152 29.9566 29.4569 30.926 26.006C31.8953 22.5551 29.871 19.0184 26.4044 18.1066C22.9379 17.1947 19.3418 19.2531 18.3725 22.704Z" fill="#FCD116"/>
<path d="M19.1916 21.1424L15.1846 18.883L14.0386 19.3849L19.0377 21.6905L19.1916 21.1424V21.1424ZM18.5368 23.4737L12.496 22.5834L11.3945 20.8845L13.2284 19.9762L18.9028 22.1705L18.5368 23.4737V23.4737ZM18.2477 24.5026L13.6245 24.4371L12.9021 23.4307L18.4019 23.9537L18.2477 24.5026V24.5026Z" fill="#FCD116"/>
</g>
<path d="M16.6932 27.0174L16.8661 27.5501L17.0343 27.874C17.0507 27.9247 17.0607 27.9986 17.0642 28.0956C17.0803 28.1885 17.0966 28.2603 17.1131 28.311L17.0683 28.3676C17.0005 28.4176 16.9666 28.4427 16.9666 28.4427L16.491 28.597L16.1661 28.8917L15.7476 29.0276L15.4694 29.0127L15.2518 28.5367C15.2353 28.4859 15.2209 28.4416 15.2086 28.4035C15.2048 28.3487 15.1988 28.3086 15.1906 28.2832L15.0861 27.8966L15.0305 27.7254C14.9852 27.5859 14.9461 27.4654 14.9132 27.3639C14.8888 27.2457 14.8663 27.1548 14.8458 27.0914L14.8272 27.0344L14.8976 26.9274L14.8411 26.8827L14.7979 26.7495C14.7608 26.6354 14.7342 26.5319 14.7181 26.439C14.7019 26.3461 14.6733 26.2362 14.6321 26.1094C14.5995 25.9658 14.5566 25.7905 14.5035 25.5834C14.4503 25.3764 14.366 25.0954 14.2508 24.7403C14.2302 24.6769 14.2053 24.6218 14.1762 24.5752C14.1556 24.5118 14.133 24.4421 14.1083 24.366C14.0753 24.2645 14.0597 24.1084 14.0614 23.8976L13.9409 23.1377L13.8888 22.5237L13.9145 22.4734L13.8774 22.3592L13.9155 22.3469C13.9281 22.3427 13.9263 22.3153 13.9098 22.2646C13.8933 22.2139 13.881 22.1758 13.8727 22.1505L13.8043 22.0045L13.849 21.9479L13.8305 21.8908L13.7863 21.8841L13.8058 21.8147C13.8229 21.7811 13.8274 21.7516 13.8192 21.7263L13.7574 21.5361C13.7492 21.5107 13.7288 21.4262 13.6962 21.2826C13.6762 21.1348 13.6565 20.966 13.6369 20.7761C13.6132 20.5736 13.6042 20.3732 13.61 20.1751C13.6117 19.9643 13.632 19.7894 13.6711 19.6506C13.7136 19.6088 13.7792 19.5734 13.868 19.5446C13.9526 19.5031 14.0393 19.468 14.1281 19.4392L14.2803 19.3898L14.6094 19.367L14.8947 19.2744C15.0298 19.2586 15.1638 19.3693 15.2969 19.6065C15.4426 19.8395 15.5904 20.0789 15.7403 20.3247L15.9021 19.8516C16.0677 19.7138 16.2311 19.5696 16.3925 19.419C16.5539 19.2685 16.7154 19.118 16.8768 18.9675C17.0509 18.8128 17.2375 18.6752 17.4366 18.5545C17.6316 18.4211 17.8623 18.3112 18.1286 18.2247C18.2047 18.2 18.3185 18.2051 18.47 18.24C18.6174 18.2623 18.7647 18.3056 18.9117 18.37C19.0674 18.4176 19.206 18.4778 19.3277 18.5504C19.4621 18.6189 19.5417 18.6912 19.5664 18.7673L19.5592 18.8748L19.6795 18.8568L19.7912 19.1359L19.7701 19.3951L19.8015 19.4269C19.8097 19.4523 19.8094 19.4945 19.8005 19.5534C19.8043 19.6083 19.8038 19.6715 19.799 19.7432C19.8028 19.798 19.8003 19.8549 19.7914 19.9139C19.7951 19.9687 19.7927 20.0045 19.7842 20.0213L19.7493 20.4322L19.8044 20.6666L19.7083 20.824L19.7582 20.9129L19.7196 20.9885L19.8138 21.0841L19.8508 21.1983L19.73 21.2795L19.8031 21.6343L19.8648 21.8245L19.9214 21.8692L19.9446 22.1351C19.8939 22.1515 19.8725 22.1935 19.8804 22.2611C19.8883 22.3286 19.8963 22.375 19.9046 22.4004L20.0311 22.4014L20.0177 22.4898L19.9854 22.5844L20.0086 22.8503L19.93 23.1912L19.908 23.5768L19.4114 23.9903L18.9188 23.8979C18.8427 23.9226 18.7707 23.96 18.7028 24.0101C18.6309 24.0474 18.5568 24.0785 18.4807 24.1032C18.2144 24.1896 17.9927 24.2406 17.8154 24.256C17.6341 24.2588 17.3998 24.2928 17.1126 24.358C17.0454 24.3238 16.9717 24.3126 16.8915 24.3247C16.8072 24.324 16.7249 24.3297 16.6447 24.3417C16.5645 24.3537 16.4969 24.3616 16.4421 24.3654C16.3831 24.3565 16.3454 24.3267 16.329 24.276C16.3248 24.2633 16.3271 24.2485 16.3356 24.2317L16.0775 24.0842L16.1661 24.8755L16.2227 24.9202L16.2402 25.1038L16.303 25.1675C16.2601 25.2515 16.253 25.359 16.2814 25.4899C16.3058 25.6082 16.3283 25.699 16.3489 25.7624L16.4235 25.9275L16.4415 26.0478L16.4091 26.1424L16.4899 26.3264L16.4689 26.5856L16.6438 26.8653L16.6932 27.0174ZM17.1267 23.3652C17.2282 23.3322 17.2789 23.3158 17.2789 23.3158C17.2916 23.3116 17.2979 23.3096 17.2979 23.3096C17.3065 23.2928 17.3362 23.2762 17.3869 23.2597C17.4376 23.2432 17.5581 23.2041 17.7483 23.1424C17.9553 23.0892 18.1204 23.0146 18.2434 22.9186C18.375 22.8058 18.4334 22.6186 18.4186 22.3571L18.4026 21.9838L18.2764 21.1416L18.3179 20.6865L18.2323 19.5158L18.1819 19.4901C18.1565 19.4983 18.1226 19.5233 18.0801 19.5652C18.0335 19.5943 17.9975 19.613 17.9721 19.6212L17.5712 19.9406L17.1054 20.4493L17.0103 20.4802L17.0279 20.6637C17.0025 20.6719 16.9686 20.697 16.9261 20.7388C16.8963 20.7765 16.8687 20.7995 16.8433 20.8077L16.7647 21.1486C16.7013 21.1692 16.6398 21.2172 16.5802 21.2927C16.5332 21.364 16.482 21.4437 16.4265 21.5318C16.3837 21.6158 16.3388 21.6934 16.2918 21.7647C16.2576 21.8319 16.2341 21.8676 16.2214 21.8717C16.1998 21.9348 16.17 21.9725 16.132 21.9848C16.1066 21.9931 16.0812 22.0013 16.0559 22.0095C16.0264 22.0051 15.999 22.007 15.9736 22.0152C15.8848 22.044 15.8419 22.1491 15.8446 22.3304C15.8433 22.4991 15.8509 22.6088 15.8673 22.6595C15.8838 22.7102 15.9047 22.7315 15.9301 22.7233L15.8587 22.9567L15.9091 22.9824L15.9765 23.2549C16.0094 23.3564 16.0196 23.4091 16.0069 23.4133C15.9942 23.4174 16.0042 23.4912 16.0368 23.6349L16.138 23.623C16.1634 23.6148 16.1951 23.6045 16.2332 23.5921C16.2671 23.5671 16.2967 23.5505 16.3221 23.5422L17.1267 23.3652ZM14.1605 23.3608C14.1687 23.3861 14.1833 23.4094 14.2042 23.4307C14.2251 23.4519 14.2397 23.4752 14.2479 23.5006L14.2613 23.4121L14.1563 23.0888C14.1601 23.1436 14.1575 23.2005 14.1486 23.2595C14.1483 23.3016 14.1522 23.3354 14.1605 23.3608ZM14.6541 25.7238L14.7107 25.7685C14.7114 25.6842 14.6952 25.5913 14.6623 25.4898L14.6376 25.4137C14.6332 25.4432 14.6285 25.4938 14.6238 25.5654C14.6276 25.6203 14.6336 25.6604 14.6418 25.6857L14.6541 25.7238ZM14.7159 25.914C14.7029 25.9603 14.7067 26.0151 14.7272 26.0785L14.7581 26.1737C14.8088 26.1572 14.8198 26.1046 14.791 26.0158L14.7786 25.9777L14.7159 25.914ZM14.3591 23.843L14.3168 23.5834L14.2664 23.5577L14.284 23.7412L14.3591 23.843Z" fill="#4056A1"/>
<path d="M32.6787 22.3559L32.7226 22.3534C32.7519 22.3517 32.7824 22.372 32.8142 22.4143C32.8598 22.4411 32.8972 22.4536 32.9265 22.452C33.0144 22.447 33.1006 22.4127 33.1851 22.3491C33.2696 22.2855 33.3537 22.2146 33.4374 22.1364C33.5349 22.0427 33.6332 21.9637 33.7324 21.8993C33.8316 21.8349 33.9397 21.7993 34.0569 21.7926C34.1447 21.7876 34.2376 21.8705 34.3354 22.0412C34.4333 22.2119 34.5433 22.3379 34.6655 22.4191L34.4803 22.65L34.5053 23.0893C34.4965 23.1926 34.486 23.2666 34.4739 23.3114C34.4764 23.3553 34.4715 23.3997 34.4594 23.4444C34.4611 23.4737 34.4558 23.5107 34.4437 23.5555C34.4307 23.5856 34.4048 23.6459 34.3658 23.7362L34.4098 23.7337C34.3361 23.9877 34.2879 24.174 34.2653 24.2928C34.2419 24.397 34.231 24.4637 34.2326 24.493C34.2481 24.5068 34.2559 24.5137 34.2559 24.5137L34.2577 24.9323C34.2284 24.934 34.2016 24.9796 34.1773 25.0691C34.1668 25.1431 34.1572 25.2318 34.1484 25.3352C34.1396 25.4385 34.1303 25.5345 34.1207 25.6232C34.1111 25.7119 34.0993 25.764 34.0855 25.7795C34.0734 25.8242 34.0686 25.8686 34.0711 25.9125C34.0727 25.9418 34.0744 25.9711 34.0761 26.0004C34.0915 26.0142 34.1001 26.0357 34.1018 26.065C34.1101 26.2114 34.0823 26.3673 34.0182 26.5325C33.968 26.6823 33.932 26.8239 33.9102 26.9573L34.0163 26.8852L33.9132 27.3979L33.9597 27.4393C33.8638 27.5623 33.8205 27.7043 33.8297 27.8654C33.8313 27.8947 33.8334 27.9313 33.8359 27.9752C33.8531 28.0183 33.8625 28.0545 33.8641 28.0838L33.5608 29.335C33.5528 29.453 33.5486 29.6369 33.5481 29.8867C33.5468 30.1218 33.5223 30.3362 33.4746 30.5299C33.4494 30.6048 33.4247 30.687 33.4005 30.7765C33.3762 30.866 33.3661 30.9474 33.3703 31.0206L33.4035 31.217C33.3897 31.2325 33.3836 31.2549 33.3853 31.2842C33.3861 31.2988 33.3796 31.3139 33.3658 31.3293L33.3671 31.3513C33.3541 31.3814 33.3493 31.4258 33.3526 31.4843C33.3543 31.5136 33.3564 31.5502 33.3589 31.5942C33.3752 31.6226 33.3842 31.6515 33.3858 31.6808C33.3892 31.7394 33.3486 31.8004 33.264 31.864C33.1795 31.9276 33.0804 31.992 32.9666 32.0572C32.8666 32.107 32.7596 32.1645 32.6458 32.2297C32.5467 32.2941 32.4695 32.3573 32.4142 32.4192C32.3745 32.4949 32.3107 32.5353 32.2228 32.5403C32.1496 32.5444 32.0458 32.5283 31.9116 32.4919C31.7781 32.4701 31.6227 32.4496 31.4453 32.4303C31.2508 32.3679 31.0138 32.2051 30.7344 31.9419C30.4696 31.6779 30.2226 31.3394 29.9935 30.9264C30.0081 30.9256 29.9767 30.8906 29.8994 30.8216C29.8366 30.7517 29.8044 30.7021 29.8027 30.6728L29.8002 30.6289L29.7977 30.585L29.7733 30.5423L29.9063 30.5567L29.9026 30.4908C29.8528 30.3908 29.7953 30.2839 29.7301 30.1701C29.6786 30.0408 29.6207 29.9266 29.5563 29.8275C29.4911 29.7136 29.4348 29.6287 29.3875 29.5726C29.3541 29.5011 29.3374 29.4653 29.3374 29.4653L29.3141 29.4446L29.3191 29.5325C29.3216 29.5764 29.3083 29.5992 29.279 29.6009C29.1037 29.3611 28.9818 29.155 28.9132 28.9826C28.8438 28.7956 28.7353 28.5668 28.5877 28.296C28.5488 28.3864 28.4964 28.4996 28.4307 28.6355C28.3797 28.7706 28.3221 28.9208 28.2581 29.0861C28.1932 29.2366 28.1352 29.3795 28.0841 29.5146C28.0477 29.6489 28.0247 29.7604 28.015 29.8491L28.0627 29.9125L27.8097 30.4998L27.8134 30.5657C27.8176 30.6389 27.7856 30.7216 27.7174 30.8136C27.6638 30.9048 27.6318 30.9874 27.6213 31.0614C27.5849 31.1957 27.542 31.3451 27.4926 31.5095C27.457 31.6584 27.399 31.8013 27.3186 31.9381C27.2529 32.074 27.1713 32.1888 27.0738 32.2825C26.9763 32.3762 26.8544 32.4272 26.7079 32.4356L26.652 32.615L26.1945 32.7072C26.1025 32.639 26.0191 32.5923 25.9442 32.5672C25.8839 32.5413 25.8241 32.5226 25.7647 32.5113C25.7191 32.4845 25.6658 32.4508 25.6047 32.4102C25.5583 32.3688 25.4951 32.2916 25.4152 32.1786L25.3676 32.1152C25.3521 32.1014 25.3427 32.0652 25.3393 32.0067L25.382 31.9822L25.0577 31.3176L25.0772 31.2724L25.1236 31.3138L25.2466 31.1526L25.049 31.1638L25.15 31.0038L25.1363 30.7622C25.0945 30.5442 25.0462 30.3413 24.9914 30.1535C24.953 29.994 24.8999 29.8355 24.8321 29.6777C24.7636 29.5054 24.6967 29.3623 24.6314 29.2485C24.6193 29.2932 24.6153 29.3522 24.6195 29.4254C24.627 29.5572 24.6487 29.6808 24.6846 29.7963C24.7352 29.911 24.7643 30.0342 24.7718 30.166L24.7279 30.1685L24.4977 29.6086C24.4818 29.3304 24.4143 29.0478 24.2952 28.7608C24.1752 28.4591 24.1043 28.1179 24.0826 27.7372L23.8564 26.472C23.8196 26.3419 23.7784 26.2634 23.7328 26.2367C23.6872 26.2099 23.6439 26.0948 23.6029 25.8915C23.6013 25.8622 23.6053 25.8032 23.6149 25.7145C23.6392 25.625 23.6497 25.5509 23.6463 25.4924C23.6422 25.4192 23.6156 25.3399 23.5667 25.2545C23.5169 25.1545 23.4912 25.0899 23.4895 25.0606L23.5267 24.5517C23.5258 24.537 23.5762 24.5195 23.6779 24.499C23.7796 24.4785 23.8377 24.4678 23.8524 24.467L24.6506 24.5538L25.1563 24.9216C25.25 25.0191 25.31 25.17 25.3363 25.3741C25.3618 25.5636 25.3925 25.7161 25.4285 25.8316C25.4293 25.8463 25.4392 25.8898 25.458 25.9622C25.4768 26.0345 25.4964 26.1216 25.5169 26.2232C25.5512 26.3094 25.5782 26.396 25.5978 26.4831C25.6321 26.5692 25.6501 26.627 25.6517 26.6563L25.9552 28.1154C25.9577 28.1593 25.9721 28.2834 25.9984 28.4875C26.0393 28.6909 26.0811 28.9088 26.1238 29.1415C26.1655 29.3594 26.2065 29.5628 26.2466 29.7515C26.3006 29.9247 26.3499 30.0174 26.3947 30.0295C26.4198 29.9546 26.4453 29.8871 26.4713 29.8268C26.5119 29.7657 26.5378 29.7055 26.5491 29.6461L26.4857 29.6938L26.4832 29.6498C26.4816 29.6206 26.4795 29.584 26.477 29.54C26.4891 29.4953 26.5098 29.472 26.5391 29.4704C26.5538 29.4695 26.5615 29.4764 26.5623 29.4911C26.5623 29.4911 26.5697 29.4907 26.5843 29.4898C26.6994 29.1895 26.7748 28.9648 26.8104 28.8159C26.8606 28.6661 26.8983 28.5538 26.9234 28.4789L27.0464 28.3177L26.9536 28.2348L26.9937 28.1664C27.0147 28.0183 27.0674 27.9125 27.1519 27.8489C27.2356 27.7707 27.2721 27.6364 27.2612 27.4461C27.2521 27.285 27.2772 27.2101 27.3366 27.2214C27.396 27.2327 27.4244 27.2164 27.4219 27.1725C27.4211 27.1578 27.4134 27.1509 27.3987 27.1518C27.3979 27.1371 27.3966 27.1152 27.395 27.0859L27.8232 26.0919L27.8094 25.8503C27.8956 25.816 27.9736 25.7675 28.0435 25.7048C28.1134 25.642 28.1923 25.6082 28.2801 25.6032C28.3387 25.5998 28.4205 25.6172 28.5255 25.6553C28.6443 25.6779 28.7497 25.7233 28.8417 25.7915C28.9476 25.8443 29.0396 25.9125 29.1178 25.9962C29.1952 26.0652 29.236 26.1364 29.2401 26.2096L29.2903 26.3169C29.3246 26.4031 29.3894 26.5096 29.4848 26.6364C29.5802 26.7631 29.636 26.8408 29.6523 26.8692C29.7485 27.0106 29.8146 27.1391 29.8505 27.2546C29.8856 27.3554 29.9212 27.4636 29.9571 27.579C30.0069 27.679 30.0575 27.7937 30.1089 27.923C30.1742 28.0368 30.2704 28.1782 30.3975 28.3472C30.4188 28.4636 30.4665 28.5269 30.5406 28.5374L30.7011 29.0351C30.7166 29.0489 30.7411 29.0916 30.7745 29.1631C30.8226 29.2339 30.8634 29.305 30.8968 29.3765C30.9449 29.4472 30.9857 29.5184 31.0192 29.5899C31.0518 29.6468 31.0827 29.6744 31.112 29.6728L31.1327 29.6496C31.1943 29.4404 31.2274 29.2475 31.232 29.071C31.2513 28.8936 31.2563 28.7244 31.2472 28.5633C31.238 28.4022 31.2288 28.2412 31.2197 28.0801C31.2243 27.9035 31.2501 27.7111 31.297 27.5028L31.1909 27.5749C31.1876 27.5163 31.1786 27.4875 31.1639 27.4883L31.4446 26.6129L31.5959 26.5602C31.6666 26.5121 31.7051 26.4145 31.7114 26.2672C31.7324 26.1191 31.7408 26.0084 31.7366 25.9352C31.7332 25.8767 31.7169 25.8482 31.6877 25.8499L31.7687 25.3384L31.6859 25.4313L31.5955 25.3924L31.76 25.1847L31.6451 25.1031L31.6985 24.8797L31.9144 24.8013L31.8692 24.7818C31.8567 24.5622 31.8674 24.3633 31.9014 24.185C31.9353 24.0068 31.9485 23.8518 31.941 23.72C31.936 23.6322 31.9253 23.574 31.909 23.5456C31.8952 23.561 31.9224 23.5228 31.9906 23.4307C32.0588 23.3387 32.0917 23.2707 32.0892 23.2268L32.6787 22.3559ZM29.9515 30.5762C29.9557 30.6494 30.0063 30.7641 30.1033 30.9201C30.1995 31.0616 30.2859 31.1595 30.3624 31.2139L30.3599 31.1699C30.3557 31.0967 30.306 30.9967 30.2106 30.87C30.1152 30.7432 30.0289 30.6453 29.9515 30.5762ZM29.3818 29.8594C29.4111 29.8578 29.4347 29.8858 29.4527 29.9435C29.4845 29.9858 29.5017 30.0289 29.5042 30.0728C29.5075 30.1314 29.4945 30.1615 29.4652 30.1632C29.4359 30.1648 29.4123 30.1368 29.3943 30.0791C29.3764 30.0213 29.3661 29.9705 29.3636 29.9266C29.3611 29.8826 29.3672 29.8603 29.3818 29.8594ZM24.7781 30.2758C24.7935 30.2896 24.8029 30.3258 24.8063 30.3844C24.8234 30.4274 24.8328 30.4636 24.8345 30.4929C24.837 30.5369 24.8309 30.5592 24.8163 30.5601C24.8016 30.5609 24.7857 30.5398 24.7686 30.4967C24.7506 30.4389 24.7404 30.3881 24.7379 30.3442C24.7354 30.3002 24.7488 30.2774 24.7781 30.2758ZM24.1599 27.1599C24.116 27.1624 24.0953 27.1856 24.0978 27.2295C24.1011 27.2881 24.1248 27.3161 24.1687 27.3136C24.198 27.312 24.2114 27.2892 24.2089 27.2452C24.2055 27.1867 24.1892 27.1582 24.1599 27.1599ZM29.3254 29.6423C29.3986 29.6381 29.4381 29.6873 29.444 29.7898C29.4448 29.8044 29.4379 29.8122 29.4233 29.813C29.35 29.8172 29.3105 29.768 29.3047 29.6655C29.3038 29.6509 29.3108 29.6431 29.3254 29.6423ZM24.4389 28.5763C24.4439 28.6642 24.4696 28.7288 24.5161 28.7702L24.5123 28.7043C24.5098 28.6604 24.4906 28.5807 24.4546 28.4652L24.4389 28.5763ZM29.6961 30.3484C29.7401 30.3458 29.7645 30.3885 29.7695 30.4764C29.772 30.5203 29.7586 30.5431 29.7293 30.5448C29.6854 30.5473 29.6614 30.5119 29.6572 30.4387C29.6539 30.3801 29.6668 30.35 29.6961 30.3484ZM24.3612 27.9858L24.3562 27.8979C24.3554 27.8833 24.3391 27.8548 24.3073 27.8126C24.2893 27.7548 24.2713 27.6971 24.2533 27.6393L24.2621 27.7931L24.3612 27.9858ZM29.5776 30.2009C29.6215 30.1984 29.6455 30.2337 29.6497 30.3069C29.6514 30.3362 29.6449 30.3513 29.6302 30.3521C29.5717 30.3554 29.5403 30.3205 29.5361 30.2473C29.5345 30.218 29.5483 30.2025 29.5776 30.2009ZM24.4101 28.0711C24.3809 28.0728 24.3675 28.0956 24.37 28.1395C24.3716 28.1688 24.3871 28.1826 24.4164 28.181C24.4457 28.1793 24.4595 28.1638 24.4578 28.1345C24.4553 28.0906 24.4394 28.0695 24.4101 28.0711ZM24.4641 28.2443C24.4201 28.2468 24.3994 28.2701 24.4019 28.314C24.4174 28.3278 24.4325 28.3343 24.4471 28.3335C24.491 28.331 24.5122 28.3151 24.5105 28.2858C24.5088 28.2565 24.4934 28.2427 24.4641 28.2443ZM24.2433 27.4636C24.2149 27.4799 24.2007 27.4881 24.2007 27.4881L24.1787 27.4893C24.1795 27.504 24.2019 27.5101 24.2458 27.5076C24.2751 27.5059 24.2894 27.4977 24.2885 27.4831C24.273 27.4693 24.258 27.4628 24.2433 27.4636Z" fill="#F13C20"/>
<path d="M22.4639 24.1138C22.4362 24.0518 22.4035 23.9976 22.3658 23.9515L22.4026 23.9329C22.412 23.9445 22.4381 23.9693 22.4809 24.0075C22.5302 24.0442 22.5563 24.0691 22.5593 24.0821L22.6571 24.1523C22.6259 24.1046 22.5844 24.0422 22.5328 23.965C22.4863 23.8799 22.4357 23.7922 22.3812 23.702C22.3267 23.6118 22.2721 23.5215 22.2176 23.4313C22.163 23.3411 22.114 23.26 22.0703 23.1878L21.913 22.8542C21.8512 22.7315 21.798 22.6171 21.7535 22.5109C21.7156 22.4033 21.6656 22.2882 21.6038 22.1654L21.5691 22.1937L21.5836 22.3033L21.5307 22.3869L21.498 22.3328C21.4901 22.3278 21.4846 22.3188 21.4817 22.3058C21.4351 22.2206 21.4031 22.1697 21.3857 22.1531C21.3668 22.1301 21.3425 22.098 21.3127 22.0569L21.1733 21.8935L21.2542 21.7523C21.2867 21.7449 21.3265 21.7394 21.3735 21.7356C21.427 21.7304 21.4569 21.727 21.4635 21.7255L21.5317 21.7101L21.7555 21.7929C21.8379 21.7948 21.8933 21.813 21.9216 21.8476C21.9484 21.8758 21.9847 21.9154 22.0305 21.9666L22.1428 22.1463C22.1602 22.1628 22.1777 22.2101 22.1953 22.2882C22.2115 22.3597 22.2275 22.4005 22.2434 22.4106L22.3284 22.5144C22.3662 22.5606 22.416 22.645 22.4778 22.7677C22.5448 22.8825 22.6066 23.0052 22.6635 23.1359L22.7277 23.1932C22.7451 23.2097 22.7589 23.2408 22.7692 23.2863C22.778 23.3253 22.7918 23.3564 22.8107 23.3795L22.9479 23.533C22.9804 23.5257 23.0052 23.4688 23.0222 23.3625C23.0457 23.2547 23.063 23.1346 23.0741 23.0022C23.0917 22.8684 23.1043 22.7425 23.1119 22.6246C23.118 22.5002 23.1246 22.4235 23.1317 22.3946C23.1324 22.3671 23.1384 22.3487 23.15 22.3392C23.168 22.3283 23.1806 22.3084 23.1877 22.2794C23.2299 22.1332 23.2518 21.9882 23.2535 21.8443C23.2603 21.6924 23.2847 21.5434 23.3269 21.3971C23.3605 21.2734 23.3897 21.1608 23.4147 21.0595C23.4447 20.9502 23.4732 20.8344 23.5003 20.7121L23.6709 20.4686C23.6904 20.4642 23.7078 20.4808 23.7231 20.5183C23.7434 20.5479 23.7634 20.5605 23.7829 20.5561C23.8269 20.5393 23.8865 20.5156 23.9616 20.485C24.0417 20.4464 24.1176 20.419 24.1891 20.4029C24.2411 20.3911 24.2928 20.3931 24.3442 20.4089C24.4021 20.4231 24.4399 20.4693 24.4575 20.5473C24.4648 20.5798 24.4649 20.6106 24.4578 20.6395C24.4572 20.667 24.4605 20.697 24.4679 20.7295C24.4723 20.749 24.4792 20.7645 24.4886 20.7761L24.4021 20.8469L24.3278 21.0174C24.3006 21.0782 24.2892 21.1491 24.2938 21.2301C24.2984 21.3111 24.2839 21.3827 24.2501 21.445C24.1947 21.5327 24.1617 21.5983 24.151 21.6417C24.1453 21.6771 24.1306 21.718 24.1069 21.7644L24.0273 22.2745C24.0008 22.3693 23.9801 22.4594 23.9653 22.5447C23.9489 22.6236 23.9332 22.7057 23.9184 22.7911C23.91 22.875 23.9041 22.9549 23.9007 23.0309C23.8856 23.0548 23.8659 23.1037 23.8415 23.1775C23.8222 23.2434 23.8012 23.3165 23.7783 23.3968C23.7605 23.4692 23.7459 23.5408 23.7345 23.6117C23.7282 23.6747 23.7273 23.7159 23.7317 23.7354C23.7332 23.7419 23.7213 23.7651 23.6961 23.8049C23.6775 23.8433 23.6563 23.8857 23.6326 23.9321C23.6074 23.9719 23.5822 24.0118 23.557 24.0516C23.5384 24.09 23.5265 24.1132 23.5215 24.1212L23.356 24.2508L23.1209 24.3448L23.069 24.3873L23.0234 24.3669C22.9141 24.3369 22.8297 24.3115 22.7704 24.2907C22.7125 24.2764 22.6651 24.2632 22.6282 24.2511C22.5977 24.2374 22.5698 24.2198 22.5445 24.1982C22.5271 24.1816 22.5035 24.1528 22.4737 24.1116L22.4639 24.1138ZM21.9029 23.0821L21.9017 23.0311L21.9583 23.1003L21.9989 23.2347L21.9338 23.2186L21.9029 23.0821ZM21.5776 22.4584L21.622 22.4279L21.6698 22.4581L21.6528 22.5644L21.5776 22.4584ZM21.8523 22.8577L21.8646 22.9574L21.8255 22.9663L21.7787 22.8948L21.8523 22.8577ZM22.2314 23.6743L22.2943 23.6806L22.2783 23.7457L22.1848 23.695L22.2314 23.6743ZM21.7098 22.7258L21.7258 22.6607L21.8054 22.7863L21.7381 22.7605L21.7098 22.7258ZM22.154 23.5585L22.1735 23.5541C22.1865 23.5511 22.1938 23.5529 22.1952 23.5594C22.2011 23.5854 22.1845 23.6028 22.1455 23.6116C22.139 23.6131 22.135 23.6106 22.1336 23.6041C22.1306 23.5911 22.1374 23.5759 22.154 23.5585ZM21.7117 22.6434L21.6692 22.5915L21.7038 22.5632L21.7117 22.6434ZM22.0666 23.3527L22.0603 23.4156L22.0319 23.381L22.0666 23.3527Z" fill="#F13C20"/>
<path d="M26.9686 23.4455C26.9491 23.4499 26.9191 23.4533 26.8787 23.4556C26.8461 23.4629 26.8064 23.4685 26.7594 23.4722C26.7189 23.4745 26.6777 23.4736 26.6357 23.4694C26.6018 23.4702 26.5743 23.4696 26.5533 23.4675L26.2994 23.4326C26.2864 23.4355 26.2581 23.4316 26.2147 23.4209C26.1728 23.4167 26.1026 23.4086 26.0042 23.3967L25.8422 23.2692C25.829 23.2107 25.849 23.1481 25.9023 23.0814C25.9556 23.0147 26.006 22.9657 26.0537 22.9344C26.0602 22.933 26.0771 22.9326 26.1046 22.9332C26.1386 22.9323 26.1733 22.9348 26.2088 22.9404C26.2428 22.9396 26.2735 22.9395 26.301 22.9401C26.335 22.9393 26.3552 22.9381 26.3617 22.9367C26.4202 22.9235 26.4975 22.9026 26.5936 22.8741C26.6897 22.8455 26.7825 22.8177 26.8721 22.7907C26.9667 22.7557 27.045 22.7243 27.1071 22.6966C27.1743 22.661 27.2056 22.6334 27.2012 22.6139L27.1928 22.3492C27.1766 22.2777 27.1406 22.2243 27.0848 22.1891C27.029 22.1538 26.9686 22.1436 26.9036 22.1582C26.8841 22.1626 26.8693 22.1728 26.8592 22.1888L26.5848 22.1994L26.4873 22.2215C26.4353 22.2332 26.3518 22.2418 26.2368 22.2472C26.1204 22.2462 26.0018 22.2354 25.8809 22.2148C25.7666 22.1928 25.6591 22.1555 25.5584 22.1031C25.4642 22.0492 25.4061 21.9734 25.3841 21.8759C25.3709 21.8174 25.3686 21.7769 25.3772 21.7544C25.3923 21.7305 25.4055 21.6831 25.4169 21.6122L25.3832 21.5993C25.3788 21.5798 25.3787 21.5491 25.3829 21.5071C25.3936 21.4637 25.4043 21.4203 25.415 21.3768C25.4307 21.3254 25.4439 21.278 25.4546 21.2346C25.4653 21.1912 25.4717 21.159 25.4738 21.138L25.7294 20.6805C25.7394 20.6646 25.7517 20.6584 25.7662 20.662C25.7857 20.6576 25.794 20.6489 25.7911 20.6358L25.9824 20.4389L26.0312 20.4279C26.0312 20.4279 26.0492 20.417 26.0853 20.3951L26.3376 20.2869L26.4254 20.2671L26.4493 20.2822C26.4848 20.2879 26.5188 20.287 26.5513 20.2797C26.5903 20.2709 26.6326 20.2613 26.6781 20.2511L26.8439 20.2136C26.8569 20.2107 26.8776 20.2265 26.9059 20.2612C26.9393 20.2878 26.9624 20.2997 26.9754 20.2967C27.0428 20.3225 27.1021 20.3433 27.1535 20.359C27.2049 20.3748 27.2506 20.3952 27.2904 20.4204C27.3353 20.4376 27.3726 20.4668 27.4024 20.5079C27.4307 20.5425 27.4537 20.5988 27.4713 20.6769C27.4757 20.6964 27.4631 20.7163 27.4336 20.7366C27.404 20.757 27.3842 20.7751 27.3741 20.7911L27.1985 20.8307C27.192 20.8322 27.1765 20.8391 27.1519 20.8515C27.1339 20.8624 27.1094 20.8748 27.0783 20.8886C27.0538 20.901 27.0292 20.9133 27.0047 20.9257C26.9801 20.9381 26.9646 20.945 26.9581 20.9465L26.5972 21.028C26.5915 21.0634 26.5576 21.095 26.4955 21.1227C26.4385 21.1424 26.3959 21.1657 26.3678 21.1925C26.2885 21.2651 26.2464 21.3361 26.2416 21.4055C26.2353 21.4685 26.2359 21.5469 26.2435 21.6409C26.3557 21.6839 26.4798 21.7037 26.6157 21.7004C26.7581 21.6956 26.8554 21.6873 26.9074 21.6755L27.1884 21.6941C27.3757 21.7065 27.5129 21.7541 27.5999 21.837C27.692 21.9119 27.7614 21.9919 27.8079 22.0771L27.8658 22.1973L27.8834 22.2753C27.8893 22.3014 27.8912 22.3249 27.8891 22.3458C27.887 22.3668 27.8974 22.4431 27.9202 22.5746L27.9045 22.7319L27.8796 22.758C27.8301 22.8717 27.7852 22.9605 27.7449 23.0242C27.7126 23.093 27.6369 23.1511 27.5177 23.1985C27.5112 23.2 27.5029 23.2087 27.4929 23.2246C27.4893 23.2391 27.4695 23.2573 27.4334 23.2791C27.4038 23.2994 27.3515 23.3249 27.2764 23.3555C27.2078 23.3847 27.1052 23.4147 26.9686 23.4455ZM25.5389 21.7897C25.5522 21.8482 25.5845 21.8853 25.6358 21.9011C25.6937 21.9153 25.7487 21.9166 25.8007 21.9049L25.7472 21.8042L25.7428 21.7847C25.7326 21.7391 25.7299 21.7124 25.735 21.7044C25.74 21.6965 25.7367 21.6665 25.7249 21.6144C25.6989 21.6203 25.683 21.6102 25.6771 21.5842C25.6742 21.5712 25.6755 21.547 25.6812 21.5115C25.6868 21.4761 25.6955 21.4536 25.707 21.4442L25.7202 21.5027C25.7397 21.4983 25.7458 21.4799 25.7385 21.4473C25.7376 21.4134 25.735 21.3866 25.7306 21.3671C25.7233 21.3346 25.7131 21.3198 25.7001 21.3227L25.6916 21.3759L25.6629 21.2491L25.6434 21.2535C25.6413 21.2745 25.6342 21.3034 25.622 21.3404C25.6084 21.3708 25.5973 21.3972 25.5887 21.4196C25.5859 21.4681 25.5865 21.5158 25.5902 21.5628C25.6005 21.6083 25.601 21.6561 25.5918 21.706C25.5861 21.7414 25.5728 21.7581 25.5518 21.756C25.5374 21.7524 25.5331 21.7637 25.5389 21.7897ZM26.0604 20.7391C25.9498 20.764 25.8658 20.8308 25.8083 20.9395C25.7559 21.0402 25.7252 21.1462 25.7161 21.2576L25.7183 21.2674C25.7704 21.2556 25.7955 21.2158 25.7939 21.1478C25.7987 21.0784 25.8104 21.0244 25.8291 20.9861C25.8341 20.9781 25.8482 20.9647 25.8713 20.9458C25.8943 20.9269 25.9199 20.904 25.9481 20.8772C25.9762 20.8503 26.0018 20.8275 26.0248 20.8086C26.0529 20.7818 26.0713 20.7571 26.0799 20.7347L26.0604 20.7391Z" fill="#4056A1"/>
<path d="M39.168 23.728C39.0946 23.992 38.992 24.124 38.86 24.124V24.168L38.992 24.212C38.948 24.2413 38.8966 24.3147 38.838 24.432C38.794 24.5493 38.772 24.6227 38.772 24.652V25.004C38.7573 25.0187 38.75 25.048 38.75 25.092C38.75 25.1507 38.772 25.18 38.816 25.18V25.378C38.816 25.6127 38.7646 25.8253 38.662 26.016L38.288 27.094C38.2586 27.2113 38.222 27.3433 38.178 27.49C38.1486 27.622 38.134 27.7613 38.134 27.908C38.134 27.952 38.1633 27.974 38.222 27.974V28.062C38.222 28.1353 38.2 28.2087 38.156 28.282C38.1266 28.3407 38.1046 28.414 38.09 28.502L38.134 28.59L38.09 28.634C38.09 28.6927 38.1046 28.7513 38.134 28.81C38.1633 28.8687 38.178 28.9273 38.178 28.986C38.178 29.03 38.1486 29.0813 38.09 29.14C38.0313 29.1987 37.98 29.228 37.936 29.228H37.408L37.254 29.074C37.1366 29.03 36.99 29.0007 36.814 28.986C36.638 28.9567 36.4693 28.9127 36.308 28.854C36.1613 28.7953 36.0293 28.7073 35.912 28.59C35.8093 28.4727 35.758 28.2967 35.758 28.062C35.758 28.018 35.7726 27.996 35.802 27.996L35.846 28.04C35.9193 28.04 35.978 27.9593 36.022 27.798C36.066 27.6367 36.0953 27.446 36.11 27.226C36.1393 27.006 36.1613 26.7787 36.176 26.544C36.1906 26.3093 36.2053 26.126 36.22 25.994L36.44 25.554V25.51C36.44 25.4807 36.4326 25.466 36.418 25.466C36.4033 25.466 36.396 25.4513 36.396 25.422L36.638 24.586V24.542C36.638 24.4833 36.6233 24.454 36.594 24.454V24.19C36.594 24.1167 36.6453 24.08 36.748 24.08C36.8653 24.0653 36.924 24.0213 36.924 23.948L36.88 23.904C36.968 23.7867 37.012 23.6693 37.012 23.552C37.012 23.4347 37.1073 23.376 37.298 23.376V23.288L37.254 23.222L37.32 23.134C37.3786 23.0607 37.408 22.98 37.408 22.892V22.76C37.3786 22.8773 37.3273 22.9507 37.254 22.98C37.1953 22.9947 37.166 22.9947 37.166 22.98L37.188 22.958C37.188 22.9433 37.188 22.9287 37.188 22.914C37.2026 22.8993 37.21 22.8773 37.21 22.848L37.32 22.562C37.32 22.562 37.3346 22.5107 37.364 22.408C37.408 22.3053 37.4593 22.188 37.518 22.056C37.5766 21.924 37.628 21.7993 37.672 21.682C37.716 21.55 37.738 21.4693 37.738 21.44C37.738 21.264 37.7453 21.1027 37.76 20.956C37.7746 20.8093 37.8626 20.7213 38.024 20.692C38.0386 20.7067 38.112 20.7213 38.244 20.736C38.376 20.736 38.442 20.758 38.442 20.802L39.652 20.824C39.784 20.8973 39.85 20.978 39.85 21.066C39.85 21.1393 39.8426 21.242 39.828 21.374C39.8133 21.4913 39.7913 21.6233 39.762 21.77C39.7473 21.9167 39.718 22.056 39.674 22.188C39.63 22.32 39.586 22.43 39.542 22.518H39.586C39.4833 22.826 39.4026 23.0607 39.344 23.222C39.3 23.3687 39.2633 23.4787 39.234 23.552C39.2193 23.6107 39.2046 23.6473 39.19 23.662C39.19 23.6767 39.1826 23.6987 39.168 23.728ZM35.582 31.538L35.78 30.57C35.78 30.5113 35.7873 30.4527 35.802 30.394C35.8313 30.3207 35.8826 30.284 35.956 30.284C35.9853 30.284 36.0293 30.2913 36.088 30.306C36.1613 30.306 36.2126 30.328 36.242 30.372H36.352C36.4546 30.372 36.572 30.394 36.704 30.438C36.836 30.4673 36.9606 30.5113 37.078 30.57C37.21 30.614 37.32 30.68 37.408 30.768C37.5106 30.8413 37.5766 30.922 37.606 31.01C37.606 31.0393 37.5913 31.1053 37.562 31.208C37.5326 31.3107 37.518 31.384 37.518 31.428V31.538L37.804 31.824V31.868C37.804 32.044 37.6866 32.2053 37.452 32.352C37.232 32.5133 37.0266 32.594 36.836 32.594C36.3666 32.594 35.9486 32.462 35.582 32.198V31.538Z" fill="#F13C20"/>
<path d="M42.168 23.728C42.0946 23.992 41.992 24.124 41.86 24.124V24.168L41.992 24.212C41.948 24.2413 41.8966 24.3147 41.838 24.432C41.794 24.5493 41.772 24.6227 41.772 24.652V25.004C41.7573 25.0187 41.75 25.048 41.75 25.092C41.75 25.1507 41.772 25.18 41.816 25.18V25.378C41.816 25.6127 41.7646 25.8253 41.662 26.016L41.288 27.094C41.2586 27.2113 41.222 27.3433 41.178 27.49C41.1486 27.622 41.134 27.7613 41.134 27.908C41.134 27.952 41.1633 27.974 41.222 27.974V28.062C41.222 28.1353 41.2 28.2087 41.156 28.282C41.1266 28.3407 41.1046 28.414 41.09 28.502L41.134 28.59L41.09 28.634C41.09 28.6927 41.1046 28.7513 41.134 28.81C41.1633 28.8687 41.178 28.9273 41.178 28.986C41.178 29.03 41.1486 29.0813 41.09 29.14C41.0313 29.1987 40.98 29.228 40.936 29.228H40.408L40.254 29.074C40.1366 29.03 39.99 29.0007 39.814 28.986C39.638 28.9567 39.4693 28.9127 39.308 28.854C39.1613 28.7953 39.0293 28.7073 38.912 28.59C38.8093 28.4727 38.758 28.2967 38.758 28.062C38.758 28.018 38.7726 27.996 38.802 27.996L38.846 28.04C38.9193 28.04 38.978 27.9593 39.022 27.798C39.066 27.6367 39.0953 27.446 39.11 27.226C39.1393 27.006 39.1613 26.7787 39.176 26.544C39.1906 26.3093 39.2053 26.126 39.22 25.994L39.44 25.554V25.51C39.44 25.4807 39.4326 25.466 39.418 25.466C39.4033 25.466 39.396 25.4513 39.396 25.422L39.638 24.586V24.542C39.638 24.4833 39.6233 24.454 39.594 24.454V24.19C39.594 24.1167 39.6453 24.08 39.748 24.08C39.8653 24.0653 39.924 24.0213 39.924 23.948L39.88 23.904C39.968 23.7867 40.012 23.6693 40.012 23.552C40.012 23.4347 40.1073 23.376 40.298 23.376V23.288L40.254 23.222L40.32 23.134C40.3786 23.0607 40.408 22.98 40.408 22.892V22.76C40.3786 22.8773 40.3273 22.9507 40.254 22.98C40.1953 22.9947 40.166 22.9947 40.166 22.98L40.188 22.958C40.188 22.9433 40.188 22.9287 40.188 22.914C40.2026 22.8993 40.21 22.8773 40.21 22.848L40.32 22.562C40.32 22.562 40.3346 22.5107 40.364 22.408C40.408 22.3053 40.4593 22.188 40.518 22.056C40.5766 21.924 40.628 21.7993 40.672 21.682C40.716 21.55 40.738 21.4693 40.738 21.44C40.738 21.264 40.7453 21.1027 40.76 20.956C40.7746 20.8093 40.8626 20.7213 41.024 20.692C41.0386 20.7067 41.112 20.7213 41.244 20.736C41.376 20.736 41.442 20.758 41.442 20.802L42.652 20.824C42.784 20.8973 42.85 20.978 42.85 21.066C42.85 21.1393 42.8426 21.242 42.828 21.374C42.8133 21.4913 42.7913 21.6233 42.762 21.77C42.7473 21.9167 42.718 22.056 42.674 22.188C42.63 22.32 42.586 22.43 42.542 22.518H42.586C42.4833 22.826 42.4026 23.0607 42.344 23.222C42.3 23.3687 42.2633 23.4787 42.234 23.552C42.2193 23.6107 42.2046 23.6473 42.19 23.662C42.19 23.6767 42.1826 23.6987 42.168 23.728ZM38.582 31.538L38.78 30.57C38.78 30.5113 38.7873 30.4527 38.802 30.394C38.8313 30.3207 38.8826 30.284 38.956 30.284C38.9853 30.284 39.0293 30.2913 39.088 30.306C39.1613 30.306 39.2126 30.328 39.242 30.372H39.352C39.4546 30.372 39.572 30.394 39.704 30.438C39.836 30.4673 39.9606 30.5113 40.078 30.57C40.21 30.614 40.32 30.68 40.408 30.768C40.5106 30.8413 40.5766 30.922 40.606 31.01C40.606 31.0393 40.5913 31.1053 40.562 31.208C40.5326 31.3107 40.518 31.384 40.518 31.428V31.538L40.804 31.824V31.868C40.804 32.044 40.6866 32.2053 40.452 32.352C40.232 32.5133 40.0266 32.594 39.836 32.594C39.3666 32.594 38.9486 32.462 38.582 32.198V31.538Z" fill="#4056A1"/>
<defs>
<clipPath id="clip0">
<rect width="35.5276" height="36.1236" fill="white" transform="translate(31.3511) rotate(60.2134)"/>
</clipPath>
</defs>
</svg>
