<svg width="219" height="97" viewBox="0 0 219 97" fill="none" xmlns="http://www.w3.org/2000/svg">
<path d="M96.3637 54.2847L116.027 55.3113L119.572 52.2498L95.9696 52.4688L96.3637 54.2847ZM94.6873 46.5609L119.775 40.7566L127.132 44.1883L121.65 49.3945L95.6244 50.8785L94.6873 46.5609ZM93.9475 43.1519L112.033 36.9099L116.663 38.8457L94.3422 44.9706L93.9475 43.1519Z" fill="#FCD116"/>
<path d="M41.9546 56.4022C44.4359 67.8353 58.7068 75.3533 73.8295 73.194C88.9521 71.0347 99.1999 60.0159 96.7185 48.5827C94.2372 37.1496 79.9663 29.6316 64.8437 31.7909C49.721 33.9502 39.4732 44.969 41.9546 56.4022Z" fill="#FCD116"/>
<path d="M42.3092 50.6998L22.6463 49.6732L19.1012 52.7347L42.7033 52.5156L42.3092 50.6998ZM43.9855 58.4236L18.898 64.2279L11.541 60.7962L17.0233 55.59L43.0485 54.1059L43.9855 58.4236ZM44.7254 61.8326L26.6399 68.0746L22.0103 66.1388L44.3307 60.0139L44.7254 61.8326Z" fill="#FCD116"/>
<path d="M66.3256 73.0609L64.5005 88.0189L68.4487 90.6376L68.7274 72.718L66.3256 73.0609ZM76.5419 71.6022L83.586 90.5157L78.8879 96.1855L72.1606 92.147L70.8309 72.4177L76.5419 71.6022ZM81.051 70.9584L88.84 84.5435L86.1784 88.1061L78.6454 71.3019L81.051 70.9584Z" fill="#FCD116"/>
<path d="M64.8437 31.7909C49.721 33.9502 39.4732 44.969 41.9546 56.4022C44.4359 67.8353 58.7068 75.3533 73.8295 73.194C88.9521 71.0347 99.1999 60.0159 96.7185 48.5827C94.2372 37.1496 79.9663 29.6316 64.8437 31.7909Z" fill="#FCD116"/>
<path d="M72.3472 31.9232L74.1724 16.9652L70.2241 14.3465L69.9454 32.2661L72.3472 31.9232ZM62.1309 33.3819L55.0868 14.4684L59.7849 8.79858L66.5122 12.8371L67.8419 32.5664L62.1309 33.3819ZM57.6218 34.0257L49.8329 20.4406L52.4944 16.878L60.0274 33.6822L57.6218 34.0257Z" fill="#FCD116"/>
<path d="M90.5763 39.2147L105.771 29.3638L105.486 25.3473L88.5992 38.1732L90.5763 39.2147ZM82.1669 34.7847L94.9256 17.3066L103.45 15.724L104.33 22.2609L86.8678 37.2611L82.1669 34.7847ZM78.4553 32.8294L85.7361 18.8095L90.8917 17.6592L80.4355 33.8725L78.4553 32.8294Z" fill="#FCD116"/>
<path d="M53.1522 69.8952C65.6001 76.4528 82.9374 73.9773 91.8762 64.366C100.815 54.7547 97.9702 41.6472 85.5223 35.0896C73.0744 28.5319 55.7371 31.0074 46.7983 40.6187C37.8596 50.23 40.7043 63.3375 53.1522 69.8952Z" fill="#FCD116"/>
<path d="M48.0961 65.7691L32.9017 75.62L33.1869 79.6365L50.0731 66.8106L48.0961 65.7691ZM56.5055 70.1991L43.7468 87.6772L35.2226 89.2598L34.3423 82.7228L51.8046 67.7227L56.5055 70.1991ZM60.2171 72.1544L52.9363 86.1743L47.7807 87.3246L58.2369 71.1113L60.2171 72.1544Z" fill="#FCD116"/>
<path d="M86.3187 68.3045L98.9319 79.6073L104.23 79.2942L87.7384 66.778L86.3187 68.3045ZM92.3574 61.8115L115.078 71.0811L116.958 77.5169L108.325 78.3426L88.9817 65.4412L92.3574 61.8115ZM95.0226 58.9457L113.319 64.1381L114.71 68.026L93.6007 60.4746L95.0226 58.9457Z" fill="#FCD116"/>
<path d="M46.7983 40.6187C37.8596 50.23 40.7043 63.3375 53.1522 69.8952C65.6001 76.4528 82.9374 73.9773 91.8762 64.366C100.815 54.7547 97.9702 41.6472 85.5223 35.0896C73.0744 28.5319 55.7371 31.0074 46.7983 40.6187Z" fill="#FCD116"/>
<path d="M52.355 36.6801L39.7418 25.3773L34.4432 25.6904L50.9353 38.2066L52.355 36.6801ZM46.3163 43.1731L23.5958 33.9036L21.7157 27.4678L30.3492 26.6421L49.692 39.5435L46.3163 43.1731ZM43.651 46.0389L25.355 40.8465L23.9634 36.9586L45.073 44.51L43.651 46.0389Z" fill="#FCD116"/>
<path d="M22.5796 82.9941L23.7288 85.2067C23.8413 85.5533 23.9093 86.0579 23.9329 86.7206C24.0431 87.3552 24.1545 87.8457 24.2669 88.1923L23.9614 88.5787C23.4979 88.9207 23.2661 89.0917 23.2661 89.0917L20.0172 90.1463L17.7977 92.1596L14.9387 93.0876L13.0384 92.9863L11.5517 89.734C11.4393 89.3874 11.3408 89.0842 11.2565 88.8243C11.2306 88.4496 11.1896 88.1756 11.1333 88.0024L10.4196 85.3611L10.0399 84.1915C9.7306 83.2385 9.46344 82.4154 9.23846 81.7223C9.07199 80.9145 8.91845 80.2939 8.77784 79.8608L8.65129 79.4709L9.13233 78.7402L8.74587 78.4346L8.45059 77.525C8.19749 76.7452 8.01583 76.0381 7.90561 75.4035C7.79539 74.7689 7.59967 74.0184 7.31844 73.1521C7.09573 72.1709 6.80272 70.9732 6.4394 69.5589C6.07607 68.1446 5.5007 66.2245 4.71327 63.7987C4.57266 63.3655 4.40279 62.9897 4.20367 62.6713C4.06306 62.2381 3.90838 61.7616 3.73965 61.2418C3.51467 60.5487 3.40785 59.482 3.4192 58.0419L2.59596 52.8505L2.24014 48.6565L2.41568 48.3122L2.16258 47.5325L2.4225 47.4481C2.50913 47.42 2.49621 47.2327 2.38372 46.8861C2.27123 46.5396 2.18686 46.2797 2.13061 46.1064L1.66319 45.1089L1.96869 44.7225L1.84214 44.3326L1.54004 44.287L1.67341 43.8128C1.79043 43.5833 1.82083 43.3819 1.76458 43.2086L1.34275 41.9091C1.2865 41.7358 1.14702 41.1586 0.924315 40.1774C0.788243 39.1682 0.653305 38.0149 0.519503 36.7176C0.357578 35.3337 0.296351 33.965 0.335823 32.6115C0.347171 31.1713 0.486206 29.977 0.752927 29.0285C1.04323 28.7428 1.49161 28.5014 2.09807 28.3046C2.67641 28.0211 3.2688 27.7809 3.87526 27.5841L4.9149 27.2466L7.16292 27.0915L9.11226 26.4587C10.0349 26.3508 10.9507 27.1069 11.8597 28.7272C12.8553 30.3193 13.865 31.9547 14.8887 33.6335L15.9944 30.4017C17.1252 29.46 18.242 28.475 19.3447 27.4467C20.4474 26.4184 21.5501 25.3901 22.6528 24.3618C23.8421 23.3054 25.1169 22.3649 26.4773 21.5403C27.8095 20.629 29.3853 19.8781 31.2047 19.2875C31.7245 19.1188 32.502 19.1537 33.5371 19.3923C34.544 19.5443 35.5499 19.8403 36.5546 20.2803C37.6178 20.6055 38.5652 21.0162 39.3966 21.5125C40.3147 21.9806 40.8581 22.4745 41.0268 22.9944L40.9778 23.7285L41.7997 23.6054L42.5624 25.5125L42.4189 27.2829L42.6332 27.5006C42.6894 27.6739 42.6872 27.9619 42.6264 28.3647C42.6522 28.7394 42.6488 29.1714 42.6162 29.6609C42.642 30.0355 42.6245 30.4243 42.5638 30.8271C42.5896 31.2017 42.5733 31.4465 42.5148 31.5612L42.2766 34.3678L42.6529 35.9695L41.9963 37.0445L42.3372 37.6521L42.0738 38.1685L42.7168 38.8217L42.9699 39.6014L42.1446 40.1566L42.644 42.5802L43.0658 43.8797L43.4523 44.1852L43.6108 46.0012C43.2642 46.1137 43.118 46.4006 43.1719 46.8619C43.2259 47.3232 43.281 47.6405 43.3373 47.8138L44.2014 47.8206L44.1102 48.4248L43.8891 49.0711L44.0476 50.8871L43.5107 53.2161L43.3603 55.8506L39.9679 58.6755L36.6027 58.0441C36.0828 58.2129 35.5911 58.4682 35.1276 58.8102C34.6359 59.0656 34.1301 59.2777 33.6103 59.4464C31.7909 60.037 30.2759 60.3851 29.0653 60.4908C27.8265 60.5098 26.226 60.742 24.2637 61.1875C23.8047 60.9534 23.3012 60.8774 22.7532 60.9595C22.1772 60.955 21.6152 60.9938 21.0672 61.0759C20.5193 61.158 20.058 61.2119 19.6833 61.2378C19.2805 61.177 19.0229 60.9733 18.9104 60.6268C18.8823 60.5401 18.8975 60.4394 18.956 60.3247L17.1924 59.317L17.7979 64.7227L18.1844 65.0282L18.3041 66.2822L18.7328 66.7177C18.4402 67.2915 18.3912 68.0256 18.5858 68.9201C18.7522 69.7279 18.9058 70.3485 19.0464 70.7817L19.556 71.9091L19.6791 72.731L19.458 73.3774L20.0098 74.6347L19.8662 76.4051L21.061 78.3157L22.5796 82.9941ZM24.3604 54.4046C25.0535 54.1796 25.4 54.0672 25.4 54.0672C25.4867 54.039 25.53 54.025 25.53 54.025C25.5885 53.9102 25.791 53.7966 26.1376 53.6841C26.4841 53.5716 27.3072 53.3044 28.6067 52.8826C30.021 52.5193 31.1484 52.0097 31.989 51.3538C32.888 50.5831 33.2869 49.3044 33.1858 47.5177L33.0763 44.9676L32.2142 39.2142L32.498 36.1055L31.9129 28.1075L31.5686 27.9319C31.3954 27.9882 31.1636 28.1592 30.8733 28.4449C30.5548 28.6441 30.309 28.7717 30.1357 28.828L27.3964 31.01L24.2149 34.4847L23.5651 34.6957L23.6849 35.9496C23.5116 36.0059 23.2798 36.1769 22.9895 36.4626C22.7858 36.7203 22.5974 36.8772 22.4241 36.9335L21.8872 39.2625C21.4541 39.4031 21.0338 39.731 20.6265 40.2463C20.3058 40.7335 19.9558 41.278 19.5766 41.8799C19.284 42.4537 18.9774 42.9842 18.6567 43.4713C18.4226 43.9304 18.2623 44.174 18.1757 44.2021C18.0282 44.633 17.8246 44.8906 17.5647 44.975C17.3914 45.0313 17.2181 45.0875 17.0448 45.1437C16.8434 45.1133 16.6561 45.1263 16.4828 45.1825C15.8764 45.3794 15.5827 46.0972 15.6017 47.336C15.5926 48.4881 15.6443 49.2374 15.7568 49.584C15.8693 49.9305 16.0122 50.0757 16.1855 50.0194L15.6976 51.6143L16.0419 51.7898L16.5025 53.6514C16.7275 54.3445 16.7967 54.7051 16.71 54.7332C16.6234 54.7613 16.6914 55.2659 16.9141 56.2471L17.6061 56.1661C17.7794 56.1099 17.996 56.0396 18.2559 55.9552C18.4877 55.7842 18.6902 55.6706 18.8635 55.6143L24.3604 54.4046ZM4.09622 54.3746C4.15246 54.5478 4.25203 54.707 4.39491 54.8522C4.53779 54.9973 4.63735 55.1566 4.6936 55.3298L4.78477 54.7256L4.06765 52.5164C4.09351 52.8911 4.07604 53.2798 4.01526 53.6826C4.01299 53.9706 4.03997 54.2013 4.09622 54.3746ZM7.46882 70.5176L7.85529 70.8231C7.85983 70.247 7.74961 69.6124 7.52463 68.9193L7.35589 68.3995C7.3255 68.6009 7.29397 68.9463 7.26131 69.4358C7.28716 69.8104 7.32821 70.0844 7.38446 70.2577L7.46882 70.5176ZM7.89066 71.8171C7.80175 72.1333 7.82761 72.508 7.96822 72.9412L8.17914 73.5909C8.52568 73.4784 8.60053 73.119 8.40367 72.5125L8.31931 72.2526L7.89066 71.8171ZM5.4529 57.669L5.16443 55.8952L4.82015 55.7197L4.93989 56.9737L5.4529 57.669Z" fill="#4056A1"/>
<path d="M152.936 12.6479L153.236 12.6308C153.436 12.6194 153.645 12.7581 153.862 13.0468C154.174 13.2298 154.429 13.3156 154.63 13.3042C155.23 13.27 155.819 13.0358 156.396 12.6015C156.973 12.1671 157.548 11.6828 158.12 11.1485C158.786 10.5084 159.458 9.96839 160.135 9.52838C160.812 9.08838 161.551 8.8456 162.352 8.80004C162.952 8.76587 163.586 9.3319 164.255 10.4981C164.923 11.6644 165.675 12.5248 166.509 13.0794L165.244 14.6568L165.415 17.6578C165.355 18.3638 165.283 18.8696 165.2 19.1754C165.217 19.4755 165.184 19.7785 165.102 20.0843C165.113 20.2843 165.077 20.5373 164.994 20.8431C164.906 21.0488 164.728 21.4604 164.462 22.0776L164.762 22.0606C164.259 23.7953 163.93 25.0685 163.776 25.8802C163.615 26.5918 163.541 27.0476 163.552 27.2477C163.658 27.342 163.711 27.3892 163.711 27.3892L163.723 30.2487C163.523 30.2601 163.34 30.5716 163.174 31.1832C163.103 31.689 163.037 32.2949 162.977 33.0009C162.917 33.7068 162.854 34.3627 162.788 34.9686C162.722 35.5745 162.642 35.9303 162.547 36.036C162.464 36.3418 162.431 36.6448 162.449 36.9449C162.46 37.145 162.471 37.345 162.483 37.5451C162.588 37.6394 162.647 37.7866 162.658 37.9867C162.715 38.987 162.525 40.0516 162.088 41.1805C161.744 42.2036 161.498 43.171 161.35 44.0827L162.074 43.5898L161.37 47.0922L161.688 47.3753C161.033 48.2154 160.737 49.1856 160.8 50.286C160.811 50.4861 160.825 50.7362 160.842 51.0363C160.959 51.3307 161.024 51.5779 161.035 51.778L158.963 60.326C158.908 61.132 158.879 62.3881 158.876 64.0944C158.867 65.7006 158.7 67.1653 158.373 68.4885C158.202 69.0001 158.033 69.5617 157.867 70.1733C157.701 70.7849 157.633 71.3407 157.661 71.8409L157.888 73.1828C157.794 73.2885 157.752 73.4414 157.764 73.6415C157.769 73.7415 157.725 73.8444 157.631 73.9502L157.639 74.1002C157.551 74.306 157.518 74.6089 157.54 75.0091C157.552 75.2091 157.566 75.4592 157.583 75.7593C157.695 75.9537 157.756 76.1509 157.767 76.351C157.79 76.7511 157.513 77.1683 156.935 77.6026C156.358 78.0369 155.681 78.4769 154.903 78.9226C154.22 79.2626 153.49 79.6554 152.712 80.1011C152.035 80.5411 151.507 80.9726 151.13 81.3955C150.858 81.9127 150.422 82.1885 149.822 82.2226C149.322 82.2511 148.613 82.1409 147.696 81.8921C146.784 81.7433 145.722 81.603 144.511 81.4713C143.182 81.0451 141.563 79.933 139.654 78.1349C137.845 76.3311 136.158 74.0186 134.592 71.1973C134.692 71.1916 134.478 70.9529 133.949 70.4812C133.521 70.0038 133.301 69.6651 133.289 69.465L133.255 68.8648L133.088 68.5733L133.997 68.6721L133.971 68.2219C133.631 67.5388 133.239 66.8085 132.793 66.031C132.442 65.1478 132.046 64.3674 131.606 63.69C131.16 62.9125 130.776 62.3322 130.453 61.9492C130.224 61.4604 130.11 61.216 130.11 61.216L129.952 61.0745L129.986 61.6747C130.003 61.9748 129.911 62.1305 129.711 62.1419C128.514 60.504 127.681 59.0962 127.213 57.9186C126.739 56.6409 125.997 55.0774 124.989 53.228C124.723 53.8453 124.365 54.6184 123.916 55.5471C123.568 56.4702 123.174 57.4962 122.737 58.625C122.294 59.6539 121.898 60.6298 121.549 61.5529C121.3 62.4703 121.143 63.2319 121.077 63.8378L121.402 64.2709L119.674 68.2832L119.699 68.7334C119.728 69.2336 119.509 69.798 119.043 70.4267C118.677 71.0496 118.458 71.6141 118.387 72.1199C118.138 73.0373 117.845 74.0576 117.507 75.1807C117.264 76.1982 116.868 77.1741 116.319 78.1086C115.87 79.0374 115.313 79.8218 114.647 80.4618C113.981 81.1019 113.148 81.4504 112.147 81.5074L111.765 82.7334L108.64 83.363C108.011 82.897 107.441 82.5782 106.93 82.4066C106.518 82.2293 106.109 82.102 105.704 82.0248C105.392 81.8418 105.028 81.6116 104.611 81.3343C104.293 81.0513 103.862 80.5239 103.316 79.7521L102.99 79.319C102.885 79.2247 102.82 78.9775 102.798 78.5773L103.089 78.4102L100.874 73.8697L101.007 73.561L101.324 73.8441L102.164 72.7424L100.814 72.8193L101.504 71.7263L101.41 70.0757C101.125 68.5866 100.795 67.2004 100.421 65.917C100.158 64.828 99.7955 63.7448 99.3327 62.6672C98.8643 61.4895 98.4072 60.512 97.9615 59.7345C97.8785 60.0403 97.8513 60.4433 97.8798 60.9434C97.931 61.8437 98.0795 62.6883 98.3251 63.4772C98.6708 64.2604 98.8692 65.1021 98.9205 66.0024L98.6204 66.0195L97.0478 62.1951C96.9396 60.2945 96.4784 58.3637 95.6643 56.4029C94.8444 54.3421 94.3605 52.0112 94.2124 49.4104L92.6666 40.7672C92.4153 39.8783 92.1339 39.3424 91.8224 39.1594C91.5109 38.9764 91.2152 38.1904 90.9354 36.8013C90.924 36.6013 90.9513 36.1983 91.0171 35.5924C91.183 34.9808 91.2546 34.4749 91.2318 34.0748C91.2033 33.5746 91.022 33.033 90.6877 32.4499C90.3477 31.7667 90.172 31.3251 90.1606 31.125L90.4143 27.6482C90.4086 27.5482 90.753 27.4282 91.4476 27.2883C92.1421 27.1484 92.5394 27.0756 92.6394 27.07L98.0925 27.6627L101.547 30.1757C102.187 30.8417 102.597 31.8722 102.777 33.2669C102.951 34.5617 103.161 35.6035 103.407 36.3924C103.412 36.4924 103.479 36.7897 103.608 37.2841C103.737 37.7786 103.871 38.3731 104.011 39.0676C104.245 39.6565 104.429 40.2481 104.563 40.8426C104.798 41.4314 104.92 41.8259 104.932 42.0259L107.005 51.9939C107.022 52.294 107.12 53.1414 107.3 54.5362C107.58 55.9253 107.865 57.4144 108.156 59.0035C108.442 60.4927 108.722 61.8817 108.996 63.1708C109.364 64.3541 109.701 64.9872 110.007 65.0702C110.179 64.5586 110.353 64.0971 110.53 63.6856C110.808 63.2683 110.985 62.8568 111.062 62.451L110.629 62.7767L110.612 62.4766C110.601 62.2765 110.587 62.0265 110.569 61.7264C110.652 61.4206 110.794 61.262 110.994 61.2506C111.094 61.2449 111.147 61.292 111.153 61.3921C111.153 61.3921 111.203 61.3892 111.303 61.3835C112.089 59.3316 112.604 57.7969 112.847 56.7795C113.19 55.7564 113.447 54.9891 113.619 54.4775L114.46 53.3759L113.825 52.8099L114.1 52.3426C114.243 51.3309 114.603 50.6079 115.18 50.1736C115.752 49.6392 116.001 48.7219 115.927 47.4214C115.864 46.321 116.036 45.8095 116.442 45.8867C116.848 45.964 117.042 45.8526 117.025 45.5525C117.019 45.4524 116.966 45.4053 116.866 45.411C116.861 45.3109 116.852 45.1609 116.841 44.9608L119.766 38.1706L119.672 36.5201C120.261 36.2859 120.794 35.9544 121.271 35.5258C121.749 35.0972 122.287 34.8658 122.888 34.8316C123.288 34.8089 123.846 34.9276 124.564 35.1878C125.375 35.3423 126.096 35.6526 126.724 36.1186C127.447 36.4788 128.076 36.9448 128.61 37.5166C129.139 37.9883 129.418 38.4742 129.446 38.9744L129.789 39.7075C130.023 40.2963 130.466 41.0238 131.117 41.8899C131.769 42.7561 132.15 43.2863 132.262 43.4807C132.919 44.4469 133.37 45.3244 133.616 46.1133C133.856 46.8021 134.099 47.541 134.344 48.3298C134.684 49.013 135.03 49.7962 135.381 50.6794C135.827 51.4569 136.484 52.423 137.353 53.5779C137.498 54.3725 137.824 54.8055 138.33 54.8771L139.427 58.277C139.532 58.3713 139.7 58.6629 139.928 59.1517C140.257 59.6347 140.535 60.1207 140.764 60.6094C141.092 61.0925 141.371 61.5785 141.599 62.0672C141.822 62.456 142.034 62.6447 142.234 62.6333L142.375 62.4747C142.796 61.0457 143.022 59.7282 143.053 58.5221C143.185 57.3103 143.22 56.1542 143.157 55.0539C143.094 53.9535 143.032 52.8531 142.969 51.7528C143.001 50.5467 143.177 49.232 143.497 47.8087L142.773 48.3016C142.75 47.9015 142.688 47.7042 142.588 47.7099L144.506 41.7298L145.539 41.3699C146.022 41.0414 146.285 40.3741 146.329 39.368C146.472 38.3563 146.529 37.6003 146.501 37.1002C146.478 36.7 146.366 36.5057 146.166 36.5171L146.72 33.0232L146.154 33.6576L145.537 33.3916L146.66 31.9728L145.876 31.4154L146.24 29.8892L147.715 29.3536L147.407 29.2207C147.321 27.7202 147.394 26.3612 147.626 25.1437C147.858 23.9262 147.948 22.8673 147.897 21.967C147.863 21.3668 147.79 20.9695 147.679 20.7751C147.584 20.8809 147.77 20.6194 148.236 19.9907C148.702 19.362 148.927 18.8976 148.909 18.5975L152.936 12.6479ZM134.306 68.805C134.334 69.3052 134.68 70.0884 135.343 71.1546C136 72.1208 136.59 72.7897 137.113 73.1613L137.096 72.8612C137.067 72.3611 136.727 71.6779 136.076 70.8118C135.424 69.9456 134.834 69.2767 134.306 68.805ZM130.414 63.9084C130.614 63.897 130.775 64.0885 130.898 64.4829C131.115 64.7716 131.233 65.066 131.25 65.3661C131.272 65.7663 131.184 65.972 130.984 65.9834C130.784 65.9948 130.622 65.8033 130.499 65.4089C130.377 65.0144 130.307 64.6672 130.29 64.367C130.272 64.0669 130.314 63.9141 130.414 63.9084ZM98.9632 66.7527C99.0689 66.847 99.1332 67.0943 99.156 67.4944C99.2731 67.7888 99.3373 68.0361 99.3487 68.2361C99.3658 68.5362 99.3243 68.6891 99.2243 68.6948C99.1243 68.7005 99.0157 68.5562 98.8986 68.2617C98.7758 67.8673 98.7058 67.52 98.6887 67.2199C98.6716 66.9198 98.7631 66.7641 98.9632 66.7527ZM94.7406 45.4664C94.4405 45.4834 94.2989 45.642 94.316 45.9421C94.3388 46.3423 94.5003 46.5338 94.8004 46.5167C95.0004 46.5053 95.0919 46.3496 95.0748 46.0495C95.052 45.6493 94.9406 45.455 94.7406 45.4664ZM130.028 62.4249C130.529 62.3965 130.799 62.7323 130.838 63.4326C130.844 63.5326 130.797 63.5855 130.697 63.5912C130.197 63.6196 129.927 63.2838 129.887 62.5835C129.881 62.4835 129.928 62.4306 130.028 62.4249ZM96.6463 55.1427C96.6805 55.7429 96.8561 56.1845 97.1733 56.4676L97.1477 56.0174C97.1306 55.7173 96.9993 55.1728 96.7536 54.3839L96.6463 55.1427ZM132.561 67.2485C132.861 67.2314 133.028 67.5229 133.063 68.1231C133.08 68.4232 132.988 68.579 132.788 68.5904C132.488 68.6075 132.324 68.3659 132.295 67.8657C132.272 67.4656 132.361 67.2598 132.561 67.2485ZM96.1155 51.1085L96.0814 50.5083C96.0757 50.4082 95.9642 50.2139 95.7471 49.9251C95.6243 49.5307 95.5015 49.1363 95.3787 48.7418L95.4384 49.7922L96.1155 51.1085ZM131.751 66.2408C132.051 66.2237 132.215 66.4653 132.244 66.9654C132.255 67.1655 132.211 67.2684 132.111 67.2741C131.711 67.2969 131.497 67.0582 131.468 66.558C131.457 66.3579 131.551 66.2522 131.751 66.2408ZM96.4498 51.6916C96.2497 51.703 96.1583 51.8587 96.1753 52.1588C96.1867 52.3589 96.2925 52.4532 96.4925 52.4418C96.6926 52.4304 96.7869 52.3247 96.7755 52.1246C96.7585 51.8245 96.6499 51.6802 96.4498 51.6916ZM96.8183 52.8749C96.5182 52.892 96.3766 53.0506 96.3937 53.3507C96.4995 53.445 96.6023 53.4893 96.7024 53.4836C97.0025 53.4666 97.1468 53.358 97.1354 53.1579C97.124 52.9578 97.0183 52.8635 96.8183 52.8749ZM95.3103 47.5414C95.1159 47.6529 95.0187 47.7086 95.0187 47.7086L94.8687 47.7171C94.8744 47.8171 95.0273 47.8586 95.3274 47.8415C95.5275 47.8301 95.6246 47.7744 95.619 47.6744C95.5132 47.5801 95.4103 47.5357 95.3103 47.5414Z" fill="#F13C20"/>
<path d="M55.5037 64.3091C55.3146 63.8849 55.091 63.5151 54.8331 63.1998L55.0846 63.073C55.1491 63.1519 55.3275 63.3217 55.6198 63.5825C55.9566 63.8333 56.135 64.0032 56.155 64.092L56.8235 64.5714C56.61 64.2461 56.327 63.8197 55.9745 63.2924C55.6564 62.7105 55.3111 62.1115 54.9385 61.4952C54.566 60.879 54.1934 60.2627 53.8209 59.6465C53.4483 59.0303 53.113 58.4756 52.815 57.9827L51.7403 55.704C51.3176 54.8657 50.9544 54.0839 50.6506 53.3587C50.3913 52.6236 50.0502 51.8368 49.6275 50.9984L49.3911 51.1919L49.4899 51.9399L49.1287 52.5117L48.9052 52.142C48.8508 52.1076 48.8135 52.0459 48.7934 51.9571C48.4753 51.3752 48.2568 51.0277 48.1379 50.9145C48.0089 50.7569 47.8427 50.5376 47.6392 50.2567L46.687 49.141L47.2395 48.1759C47.4616 48.1257 47.7332 48.0878 48.0542 48.062C48.4197 48.0262 48.6246 48.0033 48.669 47.9932L49.1355 47.8879L50.6638 48.4534C51.227 48.4663 51.6053 48.591 51.7988 48.8275C51.9822 49.0195 52.2301 49.2904 52.5425 49.6401L53.3098 50.8675C53.4287 50.9807 53.5484 51.3039 53.6687 51.837C53.779 52.3257 53.8887 52.6044 53.9976 52.6732L54.5779 53.3826C54.8358 53.6979 55.1762 54.2748 55.5989 55.1131C56.056 55.897 56.4787 56.7354 56.867 57.6282L57.3055 58.0195C57.4244 58.1327 57.519 58.3448 57.5892 58.6558C57.6493 58.9223 57.7439 59.1344 57.8729 59.2921L58.81 60.3411C59.0322 60.291 59.2013 59.9026 59.3174 59.1761C59.478 58.4395 59.5962 57.6191 59.6722 56.7148C59.7927 55.8005 59.8787 54.9407 59.9304 54.1353C59.972 53.2855 60.0171 52.7617 60.0659 52.564C60.0702 52.3762 60.1118 52.2501 60.1906 52.1857C60.3138 52.1111 60.3998 51.975 60.4486 51.7773C60.7367 50.7784 60.8865 49.7875 60.898 48.8044C60.9439 47.7669 61.1109 46.7487 61.399 45.7498C61.6284 44.9044 61.8284 44.1355 61.9989 43.4434C62.2039 42.6968 62.3988 41.9057 62.5838 41.0703L63.7489 39.4065C63.8822 39.3765 64.0012 39.4897 64.1058 39.7462C64.2448 39.9483 64.3809 40.0343 64.5142 40.0042C64.8151 39.8896 65.2221 39.7276 65.7352 39.5184C66.2826 39.2548 66.8007 39.0678 67.2894 38.9575C67.6448 38.8773 67.998 38.8909 68.3491 38.9984C68.7446 39.0959 69.0026 39.4112 69.1229 39.9443C69.173 40.1664 69.1737 40.3763 69.125 40.5741C69.1207 40.7618 69.1436 40.9668 69.1938 41.1889C69.2238 41.3222 69.2711 41.4282 69.3356 41.507L68.7444 41.9907L68.2371 43.1557C68.0507 43.5713 67.9733 44.0557 68.0048 44.6088C68.0363 45.162 67.9367 45.6514 67.7059 46.077C67.3276 46.676 67.1018 47.1238 67.0287 47.4204C66.99 47.6626 66.8897 47.9421 66.7277 48.2588L66.1837 51.7432C66.0031 52.3909 65.8619 53.0064 65.7601 53.5897C65.6483 54.1285 65.5415 54.6896 65.4397 55.2728C65.3823 55.846 65.3422 56.392 65.3192 56.9108C65.216 57.0742 65.0813 57.408 64.915 57.9125C64.7832 58.3624 64.6391 58.8619 64.4829 59.4107C64.361 59.9051 64.2614 60.3945 64.184 60.8789C64.141 61.3088 64.1345 61.5904 64.1646 61.7237C64.1746 61.7681 64.0936 61.9264 63.9216 62.1987C63.7941 62.4609 63.6493 62.7504 63.4874 63.0671C63.3154 63.3394 63.1434 63.6117 62.9714 63.8839C62.8439 64.1462 62.7629 64.3045 62.7285 64.359L61.5977 65.2445L59.992 65.8872L59.6373 66.1773L59.3256 66.0376C58.579 65.8326 58.0029 65.6592 57.5973 65.5173C57.2018 65.4198 56.8779 65.3295 56.6257 65.2464C56.4179 65.1532 56.2274 65.0328 56.054 64.8852C55.935 64.772 55.7738 64.5749 55.5703 64.294L55.5037 64.3091ZM51.6714 57.2603L51.6628 56.9121L52.0497 57.385L52.327 58.3029L51.882 58.1933L51.6714 57.2603ZM49.449 52.9997L49.7521 52.7912L50.0788 52.9976L49.9627 53.7241L49.449 52.9997ZM51.3254 55.7276L51.4092 56.4091L51.1427 56.4692L50.8224 55.9813L51.3254 55.7276ZM53.9153 61.306L54.3453 61.349L54.2356 61.794L53.5972 61.4479L53.9153 61.306ZM50.3517 54.8269L50.4614 54.3819L51.0052 55.2397L50.5452 55.0634L50.3517 54.8269ZM53.3866 60.5149L53.5199 60.4848C53.6087 60.4648 53.6582 60.477 53.6682 60.5214C53.7083 60.6991 53.5951 60.818 53.3285 60.8782C53.2841 60.8882 53.2569 60.871 53.2468 60.8266C53.2268 60.7377 53.2734 60.6339 53.3866 60.5149ZM50.3646 54.2637L50.0745 53.909L50.3109 53.7156L50.3646 54.2637ZM52.7891 59.109L52.7461 59.539L52.5526 59.3025L52.7891 59.109Z" fill="#F13C20"/>
<path d="M81.1743 63.4764C81.041 63.5065 80.8361 63.5294 80.5595 63.5451C80.3374 63.5953 80.0658 63.6332 79.7448 63.659C79.4682 63.6748 79.1866 63.6683 78.9 63.6396C78.6678 63.6453 78.4801 63.641 78.3368 63.6267L76.6021 63.388C76.5132 63.408 76.3205 63.3815 76.0239 63.3084C75.7372 63.2797 75.2579 63.2245 74.5858 63.1428L73.4788 62.2721C73.3885 61.8723 73.5254 61.4446 73.8894 60.9889C74.2535 60.5332 74.5981 60.1986 74.9235 59.9851C74.9679 59.975 75.084 59.9722 75.2717 59.9765C75.5039 59.9708 75.741 59.9873 75.9832 60.026C76.2154 60.0203 76.4253 60.0196 76.613 60.0239C76.8452 60.0181 76.9835 60.0103 77.0279 60.0002C77.4277 59.91 77.9558 59.7674 78.6122 59.5726C79.2685 59.3777 79.9027 59.1879 80.5146 59.003C81.1609 58.7638 81.6962 58.5496 82.1204 58.3604C82.579 58.1168 82.7933 57.9284 82.7632 57.7951L82.7052 55.9873C82.5949 55.4986 82.3492 55.1339 81.968 54.8931C81.5868 54.6523 81.1741 54.5821 80.7298 54.6824C80.5966 54.7125 80.4955 54.782 80.4267 54.8909L78.5523 54.9638L77.8859 55.1143C77.5305 55.1945 76.9601 55.2532 76.1748 55.2904C75.3795 55.2832 74.5691 55.2094 73.7436 55.0689C72.9626 54.9184 72.2282 54.6639 71.5404 54.3056C70.8969 53.9373 70.5 53.4199 70.3496 52.7535C70.2593 52.3537 70.2436 52.0771 70.3023 51.9238C70.4055 51.7604 70.4958 51.4366 70.5732 50.9522L70.3432 50.8641C70.3132 50.7308 70.3125 50.5208 70.3411 50.2342C70.4142 49.9376 70.4873 49.6409 70.5604 49.3443C70.668 48.9932 70.7583 48.6693 70.8314 48.3727C70.9045 48.0761 70.9482 47.8561 70.9625 47.7128L72.7082 44.5874C72.777 44.4785 72.8608 44.4362 72.9597 44.4606C73.093 44.4305 73.1496 44.371 73.1295 44.2822L74.4366 42.9366L74.7698 42.8614C74.7698 42.8614 74.893 42.7869 75.1395 42.6379L76.8635 41.8985L77.4633 41.7631L77.6266 41.8663C77.8688 41.905 78.101 41.8993 78.3231 41.8492C78.5897 41.789 78.8784 41.7238 79.1894 41.6536L80.3223 41.3979C80.4111 41.3778 80.5523 41.486 80.7457 41.7225C80.9735 41.9045 81.1319 41.9855 81.2207 41.9654C81.6808 42.1417 82.0863 42.2836 82.4374 42.3911C82.7885 42.4986 83.1002 42.6383 83.3724 42.8103C83.6791 42.9279 83.9342 43.1271 84.1377 43.408C84.3311 43.6444 84.488 44.0292 84.6083 44.5623C84.6384 44.6956 84.5524 44.8317 84.3504 44.9707C84.1483 45.1097 84.0129 45.2337 83.9441 45.3426L82.7446 45.6134C82.7002 45.6234 82.5941 45.6707 82.4264 45.7552C82.3032 45.8297 82.1355 45.9143 81.9234 46.0088C81.7557 46.0934 81.5881 46.1779 81.4204 46.2625C81.2527 46.347 81.1467 46.3943 81.1022 46.4043L78.6366 46.9609C78.5979 47.2031 78.3665 47.4188 77.9423 47.6079C77.5525 47.7426 77.2615 47.9016 77.0695 48.085C76.5278 48.5809 76.2404 49.0659 76.2074 49.5403C76.1644 49.9702 76.1687 50.5061 76.2202 51.1482C76.9869 51.442 77.8345 51.5775 78.7632 51.5546C79.7362 51.5217 80.4004 51.4651 80.7558 51.3849L82.6754 51.5118C83.9551 51.5965 84.8924 51.9218 85.487 52.4879C86.1161 52.9996 86.5897 53.5463 86.9078 54.1282L87.3033 54.9493L87.4236 55.4824C87.4638 55.6601 87.4766 55.8206 87.4623 55.964C87.448 56.1073 87.5189 56.6282 87.675 57.5267L87.5675 58.6015L87.3976 58.7799C87.0594 59.5566 86.7527 60.1628 86.4775 60.5984C86.2568 61.0685 85.7394 61.4654 84.9254 61.7892C84.881 61.7992 84.8244 61.8587 84.7556 61.9676C84.7312 62.0665 84.5958 62.1904 84.3493 62.3395C84.1472 62.4785 83.7897 62.6525 83.2766 62.8617C82.808 63.0609 82.1072 63.2658 81.1743 63.4764ZM71.4072 52.1646C71.4975 52.5645 71.7181 52.8181 72.0692 52.9256C72.4648 53.0231 72.8402 53.0317 73.1956 52.9515L72.8302 52.2636L72.8002 52.1303C72.73 51.8193 72.7121 51.6366 72.7464 51.5822C72.7808 51.5277 72.7579 51.3228 72.6777 50.9674C72.5 51.0075 72.3911 50.9387 72.351 50.761C72.3309 50.6721 72.3402 50.5066 72.3789 50.2644C72.4177 50.0223 72.4764 49.8689 72.5552 49.8044L72.6455 50.2043C72.7788 50.1742 72.8203 50.0481 72.7702 49.8259C72.7645 49.5938 72.7466 49.4111 72.7165 49.2778C72.6664 49.0557 72.5969 48.9546 72.508 48.9747L72.4499 49.338L72.2544 48.4717L72.1211 48.5018C72.1068 48.6451 72.058 48.8428 71.9749 49.095C71.8817 49.3028 71.8058 49.4834 71.747 49.6367C71.7284 49.9678 71.7319 50.2938 71.7577 50.6148C71.8279 50.9258 71.8315 51.2518 71.7684 51.5929C71.7297 51.835 71.6387 51.949 71.4954 51.9346C71.3965 51.9103 71.3671 51.9869 71.4072 52.1646ZM74.9695 44.9874C74.2143 45.1578 73.6403 45.6142 73.2476 46.3565C72.8893 47.0444 72.6793 47.7688 72.6177 48.5297L72.6327 48.5964C72.9881 48.5161 73.1601 48.2439 73.1487 47.7796C73.1816 47.3052 73.2619 46.9369 73.3895 46.6747C73.4239 46.6202 73.5199 46.5285 73.6775 46.3996C73.8352 46.2706 74.01 46.1144 74.2021 45.931C74.3941 45.7476 74.569 45.5914 74.7266 45.4624C74.9186 45.279 75.0441 45.1106 75.1028 44.9573L74.9695 44.9874Z" fill="#4056A1"/>
<path d="M193.493 21.4816C192.992 23.2852 192.291 24.1869 191.389 24.1869V24.4875L192.291 24.7881C191.99 24.9885 191.639 25.4895 191.239 26.291C190.938 27.0926 190.788 27.5936 190.788 27.794V30.1986C190.687 30.2988 190.637 30.4992 190.637 30.7998C190.637 31.2006 190.788 31.401 191.088 31.401V32.7536C191.088 34.3568 190.738 35.8096 190.036 37.1121L187.481 44.4765C187.281 45.2781 187.03 46.1798 186.73 47.1818C186.529 48.0836 186.429 49.0354 186.429 50.0374C186.429 50.338 186.63 50.4883 187.03 50.4883V51.0894C187.03 51.5904 186.88 52.0914 186.579 52.5924C186.379 52.9931 186.229 53.4941 186.129 54.0953L186.429 54.6965L186.129 54.9971C186.129 55.3978 186.229 55.7986 186.429 56.1994C186.63 56.6002 186.73 57.001 186.73 57.4018C186.73 57.7023 186.529 58.053 186.129 58.4538C185.728 58.8546 185.377 59.055 185.077 59.055H181.469L180.417 58.0029C179.616 57.7023 178.614 57.5019 177.412 57.4018C176.209 57.2014 175.057 56.9008 173.955 56.5C172.953 56.0992 172.051 55.498 171.25 54.6965C170.548 53.8949 170.197 52.6926 170.197 51.0894C170.197 50.7888 170.298 50.6385 170.498 50.6385L170.799 50.9391C171.3 50.9391 171.7 50.3881 172.001 49.2859C172.302 48.1838 172.502 46.8812 172.602 45.3783C172.803 43.8754 172.953 42.3223 173.053 40.7192C173.153 39.1161 173.253 37.8636 173.354 36.9619L174.857 33.956V33.6554C174.857 33.455 174.806 33.3548 174.706 33.3548C174.606 33.3548 174.556 33.2546 174.556 33.0542L176.209 27.3431V27.0425C176.209 26.6417 176.109 26.4413 175.909 26.4413V24.6378C175.909 24.1368 176.259 23.8863 176.961 23.8863C177.762 23.7861 178.163 23.4855 178.163 22.9846L177.862 22.684C178.464 21.8824 178.764 21.0809 178.764 20.2793C178.764 19.4777 179.415 19.0769 180.718 19.0769V18.4758L180.417 18.0249L180.868 17.4237C181.269 16.9227 181.469 16.3717 181.469 15.7705V14.8687C181.269 15.6703 180.918 16.1713 180.417 16.3717C180.017 16.4719 179.816 16.4719 179.816 16.3717L179.967 16.2214C179.967 16.1212 179.967 16.021 179.967 15.9208C180.067 15.8206 180.117 15.6703 180.117 15.4699L180.868 13.5161C180.868 13.5161 180.968 13.1654 181.169 12.464C181.469 11.7627 181.82 10.9611 182.221 10.0593C182.622 9.15758 182.972 8.30591 183.273 7.50435C183.574 6.60259 183.724 6.05151 183.724 5.85112C183.724 4.64878 183.774 3.54662 183.874 2.54467C183.974 1.54271 184.576 0.941538 185.678 0.74115C185.778 0.841344 186.279 0.941538 187.181 1.04173C188.082 1.04173 188.533 1.19203 188.533 1.49262L196.799 1.64291C197.701 2.14388 198.152 2.69496 198.152 3.29614C198.152 3.79711 198.102 4.49848 198.002 5.40024C197.902 6.20181 197.751 7.10357 197.551 8.10552C197.451 9.10748 197.25 10.0593 196.95 10.9611C196.649 11.8629 196.349 12.6143 196.048 13.2155H196.349C195.647 15.3196 195.096 16.9227 194.695 18.0249C194.395 19.0268 194.144 19.7783 193.944 20.2793C193.844 20.6801 193.743 20.9306 193.643 21.0308C193.643 21.1309 193.593 21.2812 193.493 21.4816ZM168.995 74.8358L170.348 68.2229C170.348 67.8221 170.398 67.4213 170.498 67.0205C170.698 66.5196 171.049 66.2691 171.55 66.2691C171.75 66.2691 172.051 66.3192 172.452 66.4193C172.953 66.4193 173.304 66.5697 173.504 66.8702H174.255C174.957 66.8702 175.758 67.0205 176.66 67.3211C177.562 67.5215 178.414 67.8221 179.215 68.2229C180.117 68.5235 180.868 68.9743 181.469 69.5755C182.171 70.0765 182.622 70.6276 182.822 71.2287C182.822 71.4291 182.722 71.88 182.522 72.5814C182.321 73.2828 182.221 73.7837 182.221 74.0843V74.8358L184.175 76.7896V77.0902C184.175 78.2925 183.373 79.3947 181.77 80.3966C180.267 81.4988 178.864 82.0499 177.562 82.0499C174.356 82.0499 171.5 81.1481 168.995 79.3446V74.8358Z" fill="#4056A1"/>
<path d="M213.989 21.4816C213.488 23.2852 212.786 24.1869 211.884 24.1869V24.4875L212.786 24.7881C212.486 24.9885 212.135 25.4895 211.734 26.291C211.434 27.0926 211.283 27.5936 211.283 27.794V30.1986C211.183 30.2988 211.133 30.4992 211.133 30.7998C211.133 31.2006 211.283 31.401 211.584 31.401V32.7536C211.584 34.3568 211.233 35.8096 210.532 37.1121L207.977 44.4765C207.776 45.2781 207.526 46.1798 207.225 47.1818C207.025 48.0836 206.925 49.0354 206.925 50.0374C206.925 50.338 207.125 50.4883 207.526 50.4883V51.0894C207.526 51.5904 207.376 52.0914 207.075 52.5924C206.875 52.9931 206.724 53.4941 206.624 54.0953L206.925 54.6965L206.624 54.9971C206.624 55.3978 206.724 55.7986 206.925 56.1994C207.125 56.6002 207.225 57.001 207.225 57.4018C207.225 57.7023 207.025 58.053 206.624 58.4538C206.223 58.8546 205.873 59.055 205.572 59.055H201.965L200.913 58.0029C200.111 57.7023 199.109 57.5019 197.907 57.4018C196.705 57.2014 195.553 56.9008 194.45 56.5C193.448 56.0992 192.547 55.498 191.745 54.6965C191.044 53.8949 190.693 52.6926 190.693 51.0894C190.693 50.7888 190.793 50.6386 190.994 50.6386L191.294 50.9391C191.795 50.9391 192.196 50.3881 192.497 49.2859C192.797 48.1838 192.998 46.8812 193.098 45.3783C193.298 43.8753 193.448 42.3223 193.549 40.7192C193.649 39.1161 193.749 37.8636 193.849 36.9619L195.352 33.956V33.6554C195.352 33.455 195.302 33.3548 195.202 33.3548C195.102 33.3548 195.052 33.2546 195.052 33.0542L196.705 27.3431V27.0425C196.705 26.6417 196.605 26.4413 196.404 26.4413V24.6378C196.404 24.1368 196.755 23.8863 197.456 23.8863C198.258 23.7861 198.659 23.4855 198.659 22.9846L198.358 22.684C198.959 21.8824 199.26 21.0809 199.26 20.2793C199.26 19.4777 199.911 19.0769 201.214 19.0769V18.4758L200.913 18.0249L201.364 17.4237C201.765 16.9227 201.965 16.3717 201.965 15.7705V14.8687C201.765 15.6703 201.414 16.1713 200.913 16.3717C200.512 16.4719 200.312 16.4719 200.312 16.3717L200.462 16.2214C200.462 16.1212 200.462 16.021 200.462 15.9208C200.562 15.8206 200.612 15.6703 200.612 15.4699L201.364 13.5161C201.364 13.5161 201.464 13.1654 201.664 12.464C201.965 11.7627 202.316 10.9611 202.717 10.0593C203.117 9.15758 203.468 8.30591 203.769 7.50435C204.069 6.60259 204.219 6.05151 204.219 5.85112C204.219 4.64878 204.27 3.54662 204.37 2.54467C204.47 1.54271 205.071 0.941538 206.173 0.74115C206.273 0.841344 206.774 0.941538 207.676 1.04173C208.578 1.04173 209.029 1.19203 209.029 1.49262L217.295 1.64291C218.197 2.14388 218.648 2.69496 218.648 3.29614C218.648 3.79711 218.598 4.49848 218.497 5.40024C218.397 6.20181 218.247 7.10357 218.046 8.10552C217.946 9.10748 217.746 10.0593 217.445 10.9611C217.145 11.8629 216.844 12.6143 216.544 13.2155H216.844C216.143 15.3196 215.592 16.9227 215.191 18.0249C214.89 19.0268 214.64 19.7783 214.439 20.2793C214.339 20.6801 214.239 20.9306 214.139 21.0308C214.139 21.1309 214.089 21.2812 213.989 21.4816ZM189.491 74.8358L190.843 68.2229C190.843 67.8221 190.893 67.4213 190.994 67.0205C191.194 66.5196 191.545 66.2691 192.046 66.2691C192.246 66.2691 192.547 66.3192 192.947 66.4194C193.448 66.4194 193.799 66.5697 194 66.8702H194.751C195.452 66.8702 196.254 67.0205 197.156 67.3211C198.057 67.5215 198.909 67.8221 199.711 68.2229C200.612 68.5235 201.364 68.9743 201.965 69.5755C202.666 70.0765 203.117 70.6276 203.318 71.2287C203.318 71.4291 203.218 71.88 203.017 72.5814C202.817 73.2828 202.717 73.7837 202.717 74.0843V74.8358L204.67 76.7896V77.0902C204.67 78.2925 203.869 79.3947 202.266 80.3966C200.763 81.4988 199.36 82.0499 198.057 82.0499C194.851 82.0499 191.996 81.1481 189.491 79.3446V74.8358Z" fill="#F13C20"/>
</svg>
